<?xml version="1.0" encoding="UTF-8"?>
<svg version="1.1" xmlns="http://www.w3.org/2000/svg" width="512" height="512">
<path d="M0 0 C1.54845904 -0.00417815 3.09691501 -0.0096583 4.64536536 -0.01631981 C8.87929961 -0.03072882 13.11303845 -0.02654408 17.34698319 -0.019153 C21.92090556 -0.01441266 26.49478619 -0.02693845 31.06869507 -0.03717041 C40.01895922 -0.05434356 48.96915312 -0.05520194 57.91942947 -0.04995751 C65.19128486 -0.0459138 72.46311951 -0.04736173 79.73497391 -0.05270576 C81.28818688 -0.0538284 81.28818688 -0.0538284 82.87277789 -0.05497371 C84.97633763 -0.05650519 87.07989736 -0.05804353 89.18345709 -0.05958868 C108.89553145 -0.07330695 128.60756608 -0.0678795 148.31963952 -0.05640347 C166.36441623 -0.04645953 184.40909058 -0.05943298 202.45385151 -0.08333766 C220.9818814 -0.10769789 239.50986355 -0.11734487 258.03790915 -0.11068493 C268.44041717 -0.10718744 278.84284633 -0.10946034 289.24534225 -0.12693596 C298.0951117 -0.14161897 306.94474669 -0.14234404 315.79451339 -0.12486505 C320.31150706 -0.11632268 324.82826011 -0.11428426 329.34524155 -0.1295166 C333.4765878 -0.1432766 337.6074853 -0.13871378 341.73880501 -0.11927737 C343.23654717 -0.11549034 344.73432454 -0.11851638 346.23203556 -0.12888902 C348.26156542 -0.14195014 350.29121575 -0.12815905 352.32073021 -0.1128912 C353.44991383 -0.11278386 354.57909745 -0.11267652 355.74249876 -0.11256593 C358.62588501 0.38768005 358.62588501 0.38768005 360.9884969 1.92818969 C363.23957273 5.30948901 363.17857627 8.31278427 363.12924957 12.24009705 C363.13506334 13.04042642 363.1408771 13.84075579 363.14686704 14.66533756 C363.16153836 17.36410236 363.14754888 20.0619678 363.13381958 22.76072693 C363.13842568 24.7082389 363.14477663 26.65574741 363.15272856 28.6032486 C363.16948496 33.96812556 363.16114688 39.33271929 363.14878368 44.6975975 C363.13976127 50.47818203 363.15368893 56.25871666 363.16470337 62.03929138 C363.18252327 73.36866522 363.17863316 84.69793328 363.16705281 96.02731133 C363.15803239 105.23199713 363.15678844 114.43665321 363.16114807 123.64134216 C363.161761 124.94961582 363.16237394 126.25788947 363.16300544 127.60580778 C363.1642843 130.26324273 363.16558115 132.92067767 363.16689581 135.5781126 C363.17838828 159.80640654 363.16647 184.03464691 363.14552542 208.2629317 C363.12654233 230.39048295 363.12824082 252.51794212 363.14736938 274.64549255 C363.16877807 299.49382714 363.17721304 324.34211005 363.16492033 349.19045258 C363.16364609 351.83830769 363.1623886 354.48616281 363.16114807 357.13401794 C363.16022242 359.08839381 363.16022242 359.08839381 363.15927806 361.08225203 C363.15581918 370.27969566 363.1616651 379.4771067 363.17106628 388.67454529 C363.1822655 399.87769481 363.17929003 411.08073218 363.15794331 422.28386879 C363.14740491 428.00380758 363.14335849 433.72355915 363.15653992 439.4434967 C363.16841194 444.67420673 363.16198732 449.90455502 363.14062971 455.13523197 C363.13614155 457.03287935 363.13847913 458.93055695 363.14813286 460.82818508 C363.16020714 463.39765236 363.14791424 465.96586267 363.12924957 468.53526306 C363.13861424 469.28086267 363.1479789 470.02646227 363.15762734 470.7946558 C363.10958898 474.07843883 362.82479581 476.08898472 360.98814774 478.84699583 C357.91909935 480.84865059 355.98325639 480.88893944 352.32631683 480.89104462 C351.02296308 480.90147561 349.71960933 480.9119066 348.37676001 480.92265368 C346.92688116 480.91400499 345.47700453 480.90497834 344.02713013 480.89561462 C342.48954887 480.90022187 340.951972 480.9065736 339.41440439 480.9145236 C335.18230126 480.93126594 330.95055759 480.9229483 326.71845293 480.91057873 C322.15653545 480.90154991 317.59468095 480.91548758 313.03277588 480.92649841 C304.0910129 480.94431488 295.14938398 480.94042876 286.20761567 480.92884785 C278.93758849 480.91982156 271.66759893 480.91858606 264.39756775 480.92294312 C263.36358928 480.92355605 262.32961081 480.92416898 261.26429966 480.92480049 C259.16381656 480.92607938 257.06333347 480.92737623 254.96285039 480.92869085 C235.24863728 480.94010697 215.53449846 480.92696913 195.82029754 480.90548939 C178.91398469 480.88763864 162.00778178 480.89070381 145.10147095 480.90916443 C125.47115916 480.93058945 105.84091269 480.93898593 86.21059084 480.92671537 C84.11530337 480.92544119 82.02001589 480.92418371 79.92472839 480.92294312 C78.89381965 480.92232601 77.86291091 480.92170891 76.8007625 480.92107311 C69.5457123 480.91762352 62.29070357 480.92344057 55.03565979 480.93286133 C46.18450281 480.94410174 37.33348765 480.94099927 28.48234683 480.91973835 C23.96845914 480.90925213 19.45480754 480.90506423 14.94092178 480.91833496 C10.80274312 480.93031655 6.66501779 480.92360201 2.52687985 480.90242475 C1.03554862 480.89798271 -0.45582147 480.90017058 -1.9471274 480.9099279 C-17.80798786 481.00568207 -29.43533103 476.91991616 -41.12411499 466.07518005 C-52.2232179 454.34782603 -53.82516159 441.42732005 -53.76179504 425.92848206 C-53.76597242 424.26198082 -53.77145214 422.59548244 -53.77811486 420.92898929 C-53.79253525 416.36845722 -53.7883354 411.8081064 -53.78094804 407.24756455 C-53.77621023 402.32174893 -53.78873165 397.39597216 -53.79896545 392.47016907 C-53.8161468 382.82740233 -53.81699483 373.18470077 -53.81175255 363.5419227 C-53.80770836 355.70282146 -53.80915737 347.86373946 -53.81450081 340.02463913 C-53.81524923 338.90821276 -53.81599765 337.7917864 -53.81676875 336.64152893 C-53.81830026 334.37338504 -53.81983861 332.10524115 -53.82138372 329.83709727 C-53.83510638 308.57487924 -53.82967273 287.31269802 -53.81819851 266.05048083 C-53.80826655 246.60787516 -53.8212066 227.16536467 -53.8451327 207.72277369 C-53.86952774 187.74829006 -53.87913056 167.77385075 -53.87247998 147.79935253 C-53.86898864 136.58952051 -53.87121421 125.37976169 -53.888731 114.16994095 C-53.90345801 104.62724123 -53.90408184 95.08466624 -53.88666009 85.54196896 C-53.87815186 80.67564439 -53.8759963 75.80954259 -53.89131165 70.94322968 C-53.90517385 66.48333582 -53.9003759 62.02385526 -53.88107241 57.56398521 C-53.8773168 55.95573791 -53.88022166 54.34745737 -53.89068406 52.73923971 C-53.98817882 36.59753983 -50.20053007 24.643539 -39.06161499 12.63768005 C-27.67884215 1.86469861 -15.08310853 -0.0664912 0 0 Z M-29.74911499 27.63768005 C-37.79389164 37.93864053 -37.52237945 49.98097576 -37.49436951 62.40292358 C-37.49480586 63.84027089 -37.49568195 65.27761812 -37.49695867 66.71496493 C-37.499191 70.65550581 -37.49519962 74.59601943 -37.49018061 78.53655684 C-37.48585818 82.78937059 -37.48732381 87.04218284 -37.48808289 91.29499817 C-37.48860698 98.66026104 -37.4854721 106.02551504 -37.47984505 113.39077568 C-37.4717146 124.03967839 -37.46911324 134.68857681 -37.46785706 145.33748228 C-37.46566897 162.61504087 -37.45901546 179.89259473 -37.44955444 197.17015076 C-37.44037404 213.9527026 -37.43329628 230.73525316 -37.42904663 247.51780701 C-37.42878391 248.55245541 -37.42852118 249.58710381 -37.4282505 250.65310519 C-37.42694545 255.84368347 -37.42568175 261.03426175 -37.4244386 266.22484004 C-37.41407356 309.27912332 -37.39646184 352.33340144 -37.37411499 395.38768005 C-36.79145874 395.0009613 -36.20880249 394.61424255 -35.60848999 394.21580505 C-24.68140599 387.27470138 -14.89071156 384.7844748 -2.01040649 384.86869812 C-0.71791795 384.86119687 0.57457058 384.85369562 1.90622544 384.84596705 C5.45933156 384.82587005 9.01203471 384.83021735 12.56517124 384.83887458 C16.4096218 384.84384778 20.25397476 384.82569953 24.09838867 384.81045532 C30.74767095 384.78720867 37.39684436 384.77839187 44.04616547 384.7795639 C53.6597688 384.78123729 63.27322754 384.76085633 72.88679221 384.7352086 C88.48666506 384.69418389 104.08651179 384.67082901 119.68643188 384.65867615 C134.83424385 384.64683745 149.98200671 384.62662103 165.12979126 384.59519958 C166.06455519 384.59326348 166.99931912 384.59132738 167.96240923 384.58933261 C172.65216028 384.57956763 177.34191097 384.56963859 182.03166151 384.55962801 C220.89637935 384.47688071 259.76109669 384.4228478 298.62588501 384.38768005 C298.95636841 383.37157654 299.28685181 382.35547302 299.62734985 381.30857849 C300.07200094 379.95468047 300.51683489 378.6008425 300.96182251 377.24705505 C301.17830444 376.57980408 301.39478638 375.9125531 301.61782837 375.2250824 C306.10356193 361.62640217 313.7930361 350.72336857 326.62051392 343.92356873 C333.18557366 340.63483809 339.47957191 338.53157398 346.62588501 336.38768005 C346.62588501 246.62768005 346.62588501 156.86768005 346.62588501 64.38768005 C339.20088501 61.91268005 339.20088501 61.91268005 331.62588501 59.38768005 C316.43524804 52.45282404 307.5484787 41.68190547 301.62588501 26.38768005 C301.07367191 24.64130921 300.53955172 22.88912852 300.02236938 21.13206482 C299.75887695 20.24084427 299.49538452 19.34962372 299.22390747 18.43139648 C298.92788635 17.41975685 298.92788635 17.41975685 298.62588501 16.38768005 C260.08532703 16.34188083 221.54477316 16.30664978 183.00419347 16.28554939 C178.45190245 16.28304805 173.89961149 16.2804594 169.34732056 16.27781677 C168.44105908 16.27729215 167.5347976 16.27676753 166.60107366 16.27622701 C151.93594801 16.26752951 137.27083807 16.25176314 122.60572173 16.23337446 C107.55277441 16.21465721 92.49983531 16.20355947 77.44687682 16.19950306 C68.16188256 16.1967618 58.87693271 16.18811035 49.59195212 16.17184712 C43.22089105 16.16125771 36.84985286 16.15808386 30.47878363 16.1606773 C26.80558212 16.16195554 23.13245813 16.16002572 19.45927048 16.1492691 C15.46936353 16.13767086 11.47962038 16.14171996 7.48970032 16.14717102 C6.33889329 16.14134534 5.18808627 16.13551965 4.0024063 16.12951744 C-8.98556897 16.17736792 -20.45411837 17.78358589 -29.74911499 27.63768005 Z M316.62588501 16.38768005 C318.0282914 26.20452477 322.5961632 34.33223847 330.62588501 40.38768005 C338.15924866 44.93702466 338.15924866 44.93702466 346.62588501 46.38768005 C346.62588501 36.48768005 346.62588501 26.58768005 346.62588501 16.38768005 C336.72588501 16.38768005 326.82588501 16.38768005 316.62588501 16.38768005 Z M326.25088501 364.01268005 C321.15076381 369.53958964 316.62588501 376.76326817 316.62588501 384.38768005 C326.52588501 384.38768005 336.42588501 384.38768005 346.62588501 384.38768005 C346.62588501 374.48768005 346.62588501 364.58768005 346.62588501 354.38768005 C339.00147313 354.38768005 331.77779459 358.91255886 326.25088501 364.01268005 Z M-29.74911499 411.63768005 C-36.20982456 420.0622985 -37.547701 428.95713502 -36.37411499 439.38768005 C-33.90113157 449.59915655 -28.1034986 455.65499436 -19.42489624 461.1259613 C-10.29049578 464.9036967 -0.41241748 464.67179867 9.31196594 464.62818909 C10.77339004 464.62906279 12.23481382 464.6308168 13.69623595 464.63336742 C17.68477786 464.63781259 21.67321115 464.62987652 25.66173923 464.6198113 C29.97310609 464.61113801 34.28446731 464.61409969 38.59584045 464.61561584 C46.05653511 464.61666225 53.51719465 464.61041124 60.97788048 464.59914017 C71.76464612 464.58285493 82.55139486 464.57767407 93.33817146 464.57516418 C110.84090525 464.57079182 128.34362035 464.55749518 145.84634399 464.53855896 C162.8440644 464.52018828 179.84177972 464.50603759 196.83950806 464.49754333 C197.88804054 464.49701789 198.93657303 464.49649244 200.01687922 464.49595107 C205.27729529 464.49334091 210.5377114 464.49081352 215.79812753 464.48832726 C259.40739363 464.46760905 303.01663688 464.43184385 346.62588501 464.38768005 C346.62588501 443.26768005 346.62588501 422.14768005 346.62588501 400.38768005 C301.97040913 400.34245672 257.31493874 400.30665509 212.65944449 400.28554939 C207.38613231 400.28304801 202.11282017 400.28045937 196.83950806 400.27781677 C195.78969707 400.27729215 194.73988609 400.27676753 193.65826265 400.27622701 C176.66518862 400.26752703 159.67212814 400.25175928 142.67906215 400.23337446 C125.2395285 400.21466412 107.80000194 400.20356093 90.36045867 400.19950306 C79.60141274 400.19676036 68.8424051 400.18810111 58.08337096 400.17184712 C50.70312095 400.16126626 43.3228907 400.15808193 35.94263365 400.1606773 C31.68615959 400.16195687 27.42975239 400.16001047 23.17329025 400.1492691 C19.27137092 400.13949464 15.36956307 400.13907223 11.46763847 400.14588226 C10.06098952 400.14672322 8.65433345 400.14422183 7.24769839 400.13791369 C-6.8281095 400.07849434 -19.56661555 400.84269944 -29.74911499 411.63768005 Z " fill="#000000" transform="translate(101.37411499023438,15.612319946289063)"/>
<path d="M0 0 C1.12115694 -0.00869008 1.12115694 -0.00869008 2.26496351 -0.01755571 C4.7828677 -0.03566976 7.30074939 -0.04650286 9.81869507 -0.05725098 C11.61879686 -0.06842275 13.41889656 -0.07993596 15.21899414 -0.09176636 C21.14331149 -0.12837036 27.06765034 -0.15355094 32.99203491 -0.1763916 C33.99961208 -0.18033747 35.00718925 -0.18428333 36.04529905 -0.18834877 C45.54671487 -0.2247724 55.04813806 -0.25622038 64.5496006 -0.27745819 C76.70620552 -0.30503095 88.86222681 -0.3557863 101.01858866 -0.43793249 C109.56390044 -0.49372257 118.10905388 -0.52269417 126.65454137 -0.5319314 C131.75905938 -0.53818971 136.86289353 -0.5563184 141.96721268 -0.60331726 C146.77238322 -0.64701228 151.57649666 -0.65746342 156.38183212 -0.64268875 C158.14265635 -0.6430172 159.90352625 -0.655278 161.66416931 -0.68053818 C176.61843551 -0.88371152 176.61843551 -0.88371152 181.72773743 3.51542664 C182.79462045 4.70351137 183.83082515 5.92016873 184.82797241 7.1673584 C185.93945564 8.2603209 187.06152614 9.34273652 188.19882202 10.40881348 C189.29529891 11.49885084 190.38907837 12.59160744 191.48031616 13.68688965 C192.06591812 14.27153488 192.65152008 14.85618011 193.25486755 15.45854187 C194.47520575 16.67820667 195.69431081 17.8991065 196.91220093 19.12121582 C198.78206994 20.99650403 200.6573014 22.86631305 202.53305054 24.73571777 C203.72412702 25.92745405 204.91489381 27.11949995 206.10531616 28.31188965 C206.66565048 28.87019974 207.2259848 29.42850983 207.80329895 30.0037384 C212.73417386 34.96481347 212.98003338 37.74216088 212.99533081 44.55422974 C213.0011242 45.43234137 213.00691758 46.310453 213.01288652 47.21517408 C213.03101058 50.17530434 213.04183657 53.13541544 213.05258179 56.09558105 C213.06375266 58.21094946 213.07526584 60.32631609 213.08709717 62.44168091 C213.12370907 69.40490238 213.14888147 76.36814219 213.17172241 83.3314209 C213.17566828 84.51533779 213.17961414 85.69925467 213.18367958 86.91904783 C213.22010162 98.08129398 213.25155258 109.24354638 213.272789 120.40583229 C213.30036888 134.6924161 213.3511381 148.97850366 213.4332633 163.26488078 C213.48902709 173.30487323 213.51802117 183.34473092 213.52726221 193.38487279 C213.53352435 199.38360836 213.55168815 205.3817625 213.59864807 211.38032913 C213.64229616 217.02592996 213.65280811 222.67063107 213.63801956 228.31637192 C213.6383484 230.3868004 213.65063902 232.45726734 213.67586899 234.52754211 C213.87904675 252.13095604 213.87904675 252.13095604 209.47990417 257.25071716 C208.29531407 258.26254269 207.07862859 259.23843227 205.82797241 260.1673584 C204.73141685 261.27529698 203.6485164 262.39710328 202.58651733 263.53820801 C201.49647997 264.63468489 200.40372337 265.72846436 199.30844116 266.81970215 C198.72379593 267.40530411 198.1391507 267.99090607 197.53678894 268.59425354 C196.31712414 269.81459173 195.09622431 271.0336968 193.87411499 272.25158691 C191.99882678 274.12145593 190.12901776 275.99668739 188.25961304 277.87243652 C187.06787676 279.06351301 185.87583086 280.2542798 184.68344116 281.44470215 C184.12513107 282.00503647 183.56682098 282.56537079 182.99159241 283.14268494 C178.37363151 287.73253436 175.99182888 288.31797464 169.65594482 288.3347168 C168.90850687 288.34051018 168.16106891 288.34630357 167.39098132 288.35227251 C164.87307712 288.37038656 162.35519543 288.38121965 159.83724976 288.39196777 C158.03714797 288.40313954 156.23704827 288.41465275 154.43695068 288.42648315 C148.51263333 288.46308715 142.58829449 288.48826774 136.66390991 288.5111084 C135.65633275 288.51505426 134.64875558 288.51900013 133.61064577 288.52306557 C124.10922995 288.5594892 114.60780676 288.59093718 105.10634422 288.61217499 C92.9497393 288.63974775 80.79371802 288.6905031 68.63735616 288.77264929 C60.09204438 288.82843937 51.54689094 288.85741096 43.00140345 288.8666482 C37.89688544 288.87290651 32.7930513 288.8910352 27.68873215 288.93803406 C22.8835616 288.98172907 18.07944816 288.99218021 13.2741127 288.97740555 C11.51328847 288.977734 9.75241858 288.98999479 7.99177551 289.01525497 C-6.96249068 289.21842832 -6.96249068 289.21842832 -12.0717926 284.81929016 C-13.13867563 283.63120543 -14.17488033 282.41454807 -15.17202759 281.1673584 C-16.28351082 280.07439589 -17.40558131 278.99198028 -18.5428772 277.92590332 C-19.63935408 276.83586595 -20.73313355 275.74310935 -21.82437134 274.64782715 C-22.4099733 274.06318192 -22.99557526 273.47853668 -23.59892273 272.87617493 C-24.81926092 271.65651012 -26.03836599 270.4356103 -27.2562561 269.21350098 C-29.12612512 267.33821277 -31.00135658 265.46840375 -32.87710571 263.59899902 C-34.0681822 262.40726274 -35.25894899 261.21521684 -36.44937134 260.02282715 C-37.28987282 259.18536201 -37.28987282 259.18536201 -38.14735413 258.33097839 C-43.07822903 253.36990333 -43.32408856 250.59255592 -43.33938599 243.78048706 C-43.34517937 242.90237543 -43.35097276 242.02426379 -43.3569417 241.11954272 C-43.37506575 238.15941246 -43.38589175 235.19930136 -43.39663696 232.23913574 C-43.40780784 230.12376733 -43.41932102 228.00840071 -43.43115234 225.89303589 C-43.46776424 218.92981441 -43.49293665 211.9665746 -43.51577759 205.0032959 C-43.51972345 203.81937901 -43.52366932 202.63546212 -43.52773476 201.41566896 C-43.56415679 190.25342282 -43.59560776 179.09117042 -43.61684418 167.92888451 C-43.64442406 153.64230069 -43.69519328 139.35621314 -43.77731848 125.06983602 C-43.83308226 115.02984357 -43.86207634 104.98998587 -43.87131739 94.949844 C-43.87757953 88.95110844 -43.89574333 82.9529543 -43.94270325 76.95438766 C-43.98635133 71.30878684 -43.99686329 65.66408572 -43.98207474 60.01834488 C-43.98240357 57.9479164 -43.99469419 55.87744946 -44.01992416 53.80717468 C-44.22310193 36.20376076 -44.22310193 36.20376076 -39.82395935 31.08399963 C-38.63936924 30.0721741 -37.42268377 29.09628453 -36.17202759 28.1673584 C-35.07547202 27.05941982 -33.99257157 25.93761352 -32.93057251 24.79650879 C-31.84053514 23.7000319 -30.74777854 22.60625244 -29.65249634 21.51501465 C-29.0678511 20.92941269 -28.48320587 20.34381073 -27.88084412 19.74046326 C-26.66117931 18.52012506 -25.44027949 17.30102 -24.21817017 16.08312988 C-22.34288196 14.21326087 -20.47307294 12.33802941 -18.60366821 10.46228027 C-17.41193193 9.27120379 -16.21988603 8.080437 -15.02749634 6.89001465 C-14.46918625 6.32968033 -13.91087616 5.76934601 -13.33564758 5.19203186 C-8.71768668 0.60218243 -6.33588405 0.01674216 0 0 Z M-13.97183228 27.49450684 C-14.58745938 28.09541515 -15.20308649 28.69632347 -15.83736897 29.31544113 C-29.67004747 43.34719888 -30.98153911 58.1202416 -31.06253052 77.11462402 C-31.03495115 80.23355376 -30.98759122 83.3515524 -30.93314171 86.47012329 C-30.86101987 91.91318412 -30.92832585 97.3550887 -30.97195435 102.79821777 C-31.0225581 111.93153165 -30.9567128 121.05845812 -30.82241821 130.1907959 C-30.67003077 140.67290759 -30.71941945 151.13977047 -30.87355757 161.62151337 C-31.00164754 170.70399948 -31.0180789 179.78195913 -30.94527483 188.8650589 C-30.90215069 194.25375897 -30.89421964 199.6353497 -30.98829651 205.02355957 C-31.42045855 233.31008294 -31.42045855 233.31008294 -17.70185089 257.12796021 C-16.47036271 258.37717191 -15.2271293 259.61492535 -13.97183228 260.84020996 C-13.37925723 261.42253513 -12.78668219 262.00486031 -12.17615032 262.6048317 C-2.70257171 271.57164715 6.38994067 274.97228109 19.54152155 274.88757753 C22.98872749 274.79264987 26.42483341 274.61712658 29.85678101 274.27966309 C34.1681116 273.88987877 38.47576276 273.70149638 42.80062866 273.5345459 C49.82385609 273.23961163 56.8235255 272.76634252 63.82797241 272.1673584 C62.89094877 271.06243405 61.95221543 269.95895947 61.01278687 268.8560791 C60.49021805 268.24142288 59.96764923 267.62676666 59.429245 266.9934845 C56.62789468 263.79876364 53.57659999 260.87484955 50.53305054 257.91149902 C47.2244297 254.65779305 45.97207033 253.21206833 45.32797241 248.5423584 C45.44912152 242.84771585 48.99005796 240.03917241 52.82797241 236.1673584 C54.79596186 234.33199654 56.77304089 232.51124918 58.76156616 230.6986084 C60.38011299 229.19792609 61.9958395 227.69429024 63.60995483 226.18884277 C64.7133802 225.17475239 65.82976734 224.17458694 66.95858765 223.18884277 C72.40744524 218.40594786 77.22710625 213.89509909 78.37585449 206.39675903 C78.74261576 199.56545603 76.69251066 195.1970599 72.22142029 190.10577393 C68.91630609 186.6762332 65.42699733 183.47995466 61.89047241 180.2923584 C60.44993458 178.94081069 59.01304443 177.58536405 57.57992554 176.22595215 C54.97376875 173.75678024 52.3454947 171.31627629 49.69540405 168.89440918 C45.76255904 165.15410448 45.69050193 163.39384425 45.53512573 158.04733276 C45.46388786 154.48701939 45.40654718 150.92691246 45.36801147 147.36608887 C45.34146738 145.49408292 45.30061133 143.62222145 45.2449646 141.75085449 C44.7293512 124.19825609 44.7293512 124.19825609 48.58187866 119.6126709 C49.96004301 118.4198471 51.38140783 117.27623914 52.82797241 116.1673584 C54.81780526 114.35563743 56.79495308 112.53508496 58.76156616 110.6986084 C59.83212792 109.70338436 60.90309702 108.70859833 61.97445679 107.7142334 C62.51417114 107.21085449 63.0538855 106.70747559 63.60995483 106.18884277 C64.7133802 105.17475239 65.82976734 104.17458694 66.95858765 103.18884277 C72.40744524 98.40594786 77.22710625 93.89509909 78.37585449 86.39675903 C78.74261576 79.56545603 76.69251066 75.1970599 72.22142029 70.10577393 C68.91630609 66.6762332 65.42699733 63.47995466 61.89047241 60.2923584 C60.44993458 58.94081069 59.01304443 57.58536405 57.57992554 56.22595215 C54.97376875 53.75678024 52.3454947 51.31627629 49.69540405 48.89440918 C46.30009651 45.66532571 45.96106441 45.1322754 45.32797241 40.5423584 C45.44138076 34.79977183 48.90223698 31.98590652 52.82797241 28.1673584 C53.80067194 27.19735146 54.77194224 26.22590993 55.74203491 25.2532959 C57.24404803 23.74740349 58.74897032 22.24597504 60.27059937 20.7598877 C61.47398117 19.58005626 62.65342047 18.37589376 63.82797241 17.1673584 C63.82797241 16.8373584 63.82797241 16.5073584 63.82797241 16.1673584 C56.10218225 15.50668873 48.38339396 15.0156794 40.63617325 14.71661758 C36.41800337 14.54812156 32.22917947 14.28833171 28.02752686 13.87518311 C10.55405648 12.61718241 -1.40397287 15.14403585 -13.97183228 27.49450684 Z M105.82797241 16.1673584 C106.76499606 17.27228275 107.7037294 18.37575732 108.64315796 19.4786377 C109.16572678 20.09329391 109.68829559 20.70795013 110.22669983 21.3412323 C113.02805014 24.53595315 116.07934483 27.45986725 119.12289429 30.42321777 C122.43151512 33.67692374 123.68387449 35.12264847 124.32797241 39.7923584 C124.2068233 45.48700095 120.66588686 48.29554439 116.82797241 52.1673584 C114.85998296 54.00272025 112.88290394 55.82346761 110.89437866 57.6361084 C109.27583183 59.13679071 107.66010532 60.64042655 106.04598999 62.14587402 C104.94256462 63.15996441 103.82617749 64.16012986 102.69735718 65.14587402 C97.24849958 69.92876893 92.42883857 74.43961771 91.28009033 81.93795776 C90.91332907 88.76926076 92.96343416 93.1376569 97.43452454 98.22894287 C100.73963873 101.6584836 104.2289475 104.85476214 107.76547241 108.0423584 C109.20601025 109.39390611 110.6429004 110.74935275 112.07601929 112.10876465 C114.68217607 114.57793656 117.31045012 117.01844051 119.96054077 119.44030762 C123.89338578 123.18061232 123.9654429 124.94087255 124.12081909 130.28738403 C124.19205696 133.84769741 124.24939764 137.40780434 124.28793335 140.96862793 C124.31447744 142.84063387 124.35533349 144.71249535 124.41098022 146.5838623 C124.92659363 164.13646071 124.92659363 164.13646071 121.07406616 168.7220459 C119.69590181 169.9148697 118.274537 171.05847766 116.82797241 172.1673584 C114.83813957 173.97907937 112.86099174 175.79963184 110.89437866 177.6361084 C109.8238169 178.63133244 108.7528478 179.62611846 107.68148804 180.6204834 C107.14177368 181.1238623 106.60205933 181.62724121 106.04598999 182.14587402 C104.94256462 183.15996441 103.82617749 184.16012986 102.69735718 185.14587402 C97.24849958 189.92876893 92.42883857 194.43961771 91.28009033 201.93795776 C90.91332907 208.76926076 92.96343416 213.1376569 97.43452454 218.22894287 C100.73963873 221.6584836 104.2289475 224.85476214 107.76547241 228.0423584 C109.20601025 229.39390611 110.6429004 230.74935275 112.07601929 232.10876465 C114.68217607 234.57793656 117.31045012 237.01844051 119.96054077 239.44030762 C123.35584832 242.66939108 123.69488041 243.2024414 124.32797241 247.7923584 C124.21456406 253.53494497 120.75370785 256.34881028 116.82797241 260.1673584 C115.85527288 261.13736534 114.88400258 262.10880687 113.91390991 263.0814209 C112.41189679 264.58731331 110.9069745 266.08874176 109.38534546 267.5748291 C108.18196366 268.75466053 107.00252435 269.95882304 105.82797241 271.1673584 C105.82797241 271.4973584 105.82797241 271.8273584 105.82797241 272.1673584 C113.55376257 272.82802806 121.27255086 273.3190374 129.01977158 273.61809921 C133.23794145 273.78659523 137.42676535 274.04638509 141.62841797 274.45953369 C155.32771539 275.44581319 167.36345713 274.83438549 178.25131893 265.88148451 C180.09751318 264.24955504 181.87033384 262.56725442 183.6277771 260.84020996 C184.24340421 260.23930164 184.85903131 259.63839333 185.49331379 259.01927567 C199.3259923 244.98751791 200.63748393 230.2144752 200.71847534 211.22009277 C200.69089598 208.10116304 200.64353604 204.9831644 200.58908653 201.86459351 C200.51696469 196.42153268 200.58427068 190.9796281 200.62789917 185.53649902 C200.67850293 176.40318515 200.61265763 167.27625868 200.47836304 158.1439209 C200.32597559 147.66180921 200.37536427 137.19494633 200.52950239 126.71320343 C200.65759237 117.63071732 200.67402372 108.55275767 200.60121965 99.4696579 C200.55809552 94.08095782 200.55016446 88.6993671 200.64424133 83.31115723 C201.07640338 55.02463386 201.07640338 55.02463386 187.35779572 31.20675659 C186.12630753 29.95754489 184.88307413 28.71979145 183.6277771 27.49450684 C182.73891453 26.62101908 182.73891453 26.62101908 181.83209515 25.7298851 C172.35851653 16.76306965 163.26600415 13.3624357 150.11442327 13.44713926 C146.66721733 13.54206692 143.23111141 13.71759022 139.79916382 14.05505371 C135.48783322 14.44483803 131.18018206 14.63322041 126.85531616 14.8001709 C119.83208874 15.09510516 112.83241933 15.56837428 105.82797241 16.1673584 Z M81.94857788 22.81970215 C81.20494995 23.57380371 80.46132202 24.32790527 79.69515991 25.1048584 C78.88949585 25.91696777 78.08383179 26.72907715 77.25375366 27.5657959 C76.41199585 28.42431152 75.57023804 29.28282715 74.70297241 30.1673584 C73.85348022 31.02587402 73.00398804 31.88438965 72.12875366 32.7689209 C70.0239729 34.89735088 67.92398408 37.03029799 65.82797241 39.1673584 C67.25443021 42.426022 68.99501403 44.5698438 71.52328491 47.0579834 C72.2387146 47.76696777 72.95414429 48.47595215 73.69125366 49.2064209 C74.43762085 49.93603027 75.18398804 50.66563965 75.95297241 51.4173584 C76.70707397 52.16243652 77.46117554 52.90751465 78.23812866 53.6751709 C80.09698013 55.5104926 81.96034246 57.34097749 83.82797241 59.1673584 C87.08663602 57.7409006 89.23045781 56.00031678 91.71859741 53.4720459 C92.42758179 52.75661621 93.13656616 52.04118652 93.86703491 51.30407715 C94.59664429 50.55770996 95.32625366 49.81134277 96.07797241 49.0423584 C96.82305054 48.28825684 97.56812866 47.53415527 98.33578491 46.75720215 C100.17110662 44.89835068 102.00159151 43.03498835 103.82797241 41.1673584 C102.40734726 37.94045859 100.685518 35.76793328 98.20297241 33.2767334 C97.49656616 32.56774902 96.79015991 31.85876465 96.06234741 31.1282959 C94.95633179 30.03388184 94.95633179 30.03388184 93.82797241 28.9173584 C93.09062866 28.17228027 92.35328491 27.42720215 91.59359741 26.6595459 C90.88719116 25.95571777 90.18078491 25.25188965 89.45297241 24.5267334 C88.48230835 23.55945313 88.48230835 23.55945313 87.49203491 22.57263184 C85.03787202 20.5001316 84.34065131 20.71661655 81.94857788 22.81970215 Z M69.00717163 122.30407715 C62.73609512 128.8344797 58.25330971 134.73085395 57.95297241 144.1673584 C58.28594665 155.20099637 64.76631879 161.93503966 72.32797241 169.1673584 C76.05382657 172.6323521 79.89237632 175.94169869 83.82797241 179.1673584 C93.96878128 174.64241101 105.55761547 163.37636261 110.17562866 153.19665527 C112.25041103 145.90596652 111.9880347 139.08556772 108.82797241 132.1673584 C103.00968118 123.2785049 94.31851278 115.45060648 85.82797241 109.1673584 C80.21265182 109.1673584 72.95225539 118.36735451 69.00717163 122.30407715 Z M81.94857788 230.81970215 C81.20494995 231.57380371 80.46132202 232.32790527 79.69515991 233.1048584 C78.88949585 233.91696777 78.08383179 234.72907715 77.25375366 235.5657959 C76.41199585 236.42431152 75.57023804 237.28282715 74.70297241 238.1673584 C73.85348022 239.02587402 73.00398804 239.88438965 72.12875366 240.7689209 C70.0239729 242.89735088 67.92398408 245.03029799 65.82797241 247.1673584 C67.25443021 250.426022 68.99501403 252.5698438 71.52328491 255.0579834 C72.2387146 255.76696777 72.95414429 256.47595215 73.69125366 257.2064209 C74.43762085 257.93603027 75.18398804 258.66563965 75.95297241 259.4173584 C76.70707397 260.16243652 77.46117554 260.90751465 78.23812866 261.6751709 C80.09698013 263.5104926 81.96034246 265.34097749 83.82797241 267.1673584 C87.08663602 265.7409006 89.23045781 264.00031678 91.71859741 261.4720459 C92.42758179 260.75661621 93.13656616 260.04118652 93.86703491 259.30407715 C94.59664429 258.55770996 95.32625366 257.81134277 96.07797241 257.0423584 C96.82305054 256.28825684 97.56812866 255.53415527 98.33578491 254.75720215 C100.17110662 252.89835068 102.00159151 251.03498835 103.82797241 249.1673584 C102.40734726 245.94045859 100.685518 243.76793328 98.20297241 241.2767334 C97.49656616 240.56774902 96.79015991 239.85876465 96.06234741 239.1282959 C94.95633179 238.03388184 94.95633179 238.03388184 93.82797241 236.9173584 C93.09062866 236.17228027 92.35328491 235.42720215 91.59359741 234.6595459 C90.88719116 233.95571777 90.18078491 233.25188965 89.45297241 232.5267334 C88.48230835 231.55945313 88.48230835 231.55945313 87.49203491 230.57263184 C85.03787202 228.5001316 84.34065131 228.71661655 81.94857788 230.81970215 Z " fill="#000000" transform="translate(171.17202758789063,71.8326416015625)"/>
<path d="M0 0 C5.28 0 10.56 0 16 0 C16 58.08 16 116.16 16 176 C10.72 176 5.44 176 0 176 C0 117.92 0 59.84 0 0 Z " fill="#000000" transform="translate(88,56)"/>
<path d="M0 0 C29.04 0 58.08 0 88 0 C88 5.28 88 10.56 88 16 C58.96 16 29.92 16 0 16 C0 10.72 0 5.44 0 0 Z " fill="#000000" transform="translate(112,448)"/>
<path d="M0 0 C26.4 0 52.8 0 80 0 C80 5.28 80 10.56 80 16 C53.6 16 27.2 16 0 16 C0 10.72 0 5.44 0 0 Z " fill="#000000" transform="translate(344,432)"/>
<path d="M0 0 C10.56 0 21.12 0 32 0 C32 5.28 32 10.56 32 16 C21.44 16 10.88 16 0 16 C0 10.72 0 5.44 0 0 Z " fill="#000000" transform="translate(296,432)"/>
<path d="M0 0 C5.28 0 10.56 0 16 0 C16 5.28 16 10.56 16 16 C10.72 16 5.44 16 0 16 C0 10.72 0 5.44 0 0 Z " fill="#000000" transform="translate(216,448)"/>
<path d="M0 0 C5.28 0 10.56 0 16 0 C16 5.28 16 10.56 16 16 C10.72 16 5.44 16 0 16 C0 10.72 0 5.44 0 0 Z " fill="#000000" transform="translate(88,312)"/>
<path d="M0 0 C5.28 0 10.56 0 16 0 C16 5.28 16 10.56 16 16 C10.72 16 5.44 16 0 16 C0 10.72 0 5.44 0 0 Z " fill="#000000" transform="translate(88,280)"/>
<path d="M0 0 C5.28 0 10.56 0 16 0 C16 5.28 16 10.56 16 16 C10.72 16 5.44 16 0 16 C0 10.72 0 5.44 0 0 Z " fill="#000000" transform="translate(88,248)"/>
</svg>
