<?xml version="1.0" encoding="UTF-8"?>
<svg version="1.1" xmlns="http://www.w3.org/2000/svg" width="512" height="512">
<path d="M0 0 C2.08881291 1.12431061 4.19409037 2.2132829 6.30126953 3.30273438 C22.53197238 11.84278298 37.26669857 22.61626261 50.35302734 35.46728516 C52.13103189 37.21177256 53.92921669 38.934171 55.72705078 40.65820312 C63.91967964 48.5937476 71.32841899 56.80408734 77.98486328 66.06835938 C78.45988281 66.72610352 78.93490234 67.38384766 79.42431641 68.06152344 C104.17991045 102.74870956 120.7713447 145.54947393 121.22314453 188.52929688 C121.23293839 189.30915451 121.24273224 190.08901215 121.25282288 190.89250183 C121.55780923 221.52949182 118.42261858 250.78239558 106.67236328 279.38867188 C105.7534448 281.98231578 105.7534448 281.98231578 106.65283203 284.15039062 C108.17058119 286.33577138 109.71038623 288.49495012 111.29736328 290.63085938 C123.07739049 307.39662423 127.22693837 328.52255191 123.77001953 348.62304688 C121.10949766 360.2975757 116.75834901 370.69366845 107.98486328 379.06835938 C108.50435547 379.431875 109.02384766 379.79539062 109.55908203 380.16992188 C115.67839866 384.58125919 120.5072557 388.71160353 122.98486328 396.06835938 C123.93648919 403.37153498 123.10398017 409.87763984 118.98486328 416.06835938 C114.4524313 421.0733672 109.97961867 423.87276375 103.13136768 424.32004166 C101.59102003 424.33101061 100.05057043 424.33099736 98.51020813 424.32232666 C97.65856762 424.32544664 96.8069271 424.32856662 95.9294793 424.33178115 C93.07588126 424.33975724 90.22249611 424.33343848 87.36889648 424.32714844 C85.32169978 424.32985889 83.27450406 424.33342013 81.22731018 424.33776855 C75.65989813 424.34690036 70.09256009 424.34334182 64.52514672 424.33701038 C58.67831745 424.33194016 52.83149444 424.33664601 46.98466492 424.33978271 C37.14300404 424.34342542 27.30137312 424.33862159 17.4597168 424.32910156 C6.14309929 424.31827989 -5.17344579 424.32169526 -16.49006146 424.33275437 C-26.2391142 424.34189486 -35.98814538 424.3430779 -45.73720104 424.33787704 C-51.54396133 424.33478599 -57.35068789 424.33426658 -63.15744591 424.34095001 C-130.43219376 424.40761234 -194.07626134 416.8712735 -247.01513672 371.06835938 C-247.79630859 370.39804687 -248.57748047 369.72773438 -249.38232422 369.03710938 C-294.68275248 329.23214291 -322.41633624 274.32425117 -326.61621094 213.94311523 C-329.60566327 159.69954321 -314.06250168 104.78120891 -280.01513672 62.06835938 C-279.32162109 61.18277344 -278.62810547 60.2971875 -277.91357422 59.38476562 C-269.51980167 48.86965783 -260.46824576 38.57916775 -250.01513672 30.06835938 C-248.88939533 29.10829052 -247.76447976 28.14725296 -246.64013672 27.18554688 C-179.47409936 -29.5906371 -77.92569936 -42.13481893 0 0 Z M-246.01513672 51.06835938 C-246.56669434 51.58736816 -247.11825195 52.10637695 -247.68652344 52.64111328 C-276.85550413 80.18090972 -295.76509366 116.51277007 -304.82763672 155.38085938 C-305.02268799 156.21480225 -305.21773926 157.04874512 -305.41870117 157.90795898 C-308.42258909 171.60499888 -309.39788841 185.21057768 -309.32763672 199.19335938 C-309.3258139 199.95327179 -309.32399109 200.7131842 -309.32211304 201.49612427 C-309.13631034 247.74889256 -293.63958546 293.28167689 -264.01513672 329.06835938 C-263.30139893 329.93436768 -263.30139893 329.93436768 -262.57324219 330.81787109 C-252.99981372 342.36770909 -242.90017848 352.85012983 -231.01513672 362.06835938 C-230.48355957 362.48698242 -229.95198242 362.90560547 -229.40429688 363.33691406 C-198.28267506 387.71024807 -160.30023754 402.27052738 -121.01513672 406.06835938 C-121.01513672 403.09835937 -121.01513672 400.12835938 -121.01513672 397.06835938 C-121.95228516 396.92140625 -122.88943359 396.77445312 -123.85498047 396.62304688 C-166.22657669 389.71277265 -203.64503602 374.64815219 -236.01513672 346.06835938 C-237.28164062 344.98554687 -237.28164062 344.98554687 -238.57373047 343.88085938 C-243.52473803 339.60612772 -247.86291135 335.11616276 -252.01513672 330.06835938 C-252.64693848 329.32102539 -252.64693848 329.32102539 -253.29150391 328.55859375 C-289.40862705 285.78104079 -303.94673136 232.47316024 -299.71484375 177.14208984 C-294.40763862 128.03861107 -269.33993903 79.65592852 -231.10131836 48.05761719 C-229.42037845 46.70806329 -227.72347478 45.3830493 -226.01513672 44.06835938 C-225.39864258 43.59333984 -224.78214844 43.11832031 -224.14697266 42.62890625 C-206.42343957 29.17001519 -187.08269642 19.1563109 -166.01513672 12.06835938 C-164.92821533 11.69590088 -164.92821533 11.69590088 -163.81933594 11.31591797 C-147.64230277 5.86056418 -130.08236561 2.53791232 -113.01513672 2.06835938 C-112.34160156 2.04789551 -111.66806641 2.02743164 -110.97412109 2.00634766 C-62.0320127 0.70652432 -13.38720421 15.7894763 23.98486328 48.06835938 C24.76474609 48.73867187 25.54462891 49.40898438 26.34814453 50.09960938 C37.74691623 60.13489164 48.20400613 70.65685334 56.98486328 83.06835938 C57.40364746 83.65875 57.82243164 84.24914062 58.25390625 84.85742188 C88.64703451 128.12821409 100.12435075 182.14175617 91.51171875 234.23876953 C90.33050985 240.58270427 88.76445616 246.82449649 87.07080078 253.04882812 C86.88203369 253.75225342 86.6932666 254.45567871 86.4987793 255.18041992 C86.06826816 256.76196035 85.61693128 258.33781195 85.16064453 259.91210938 C84.76255956 262.11849837 84.76255956 262.11849837 86.12939453 263.86914062 C86.67982422 264.36800781 87.23025391 264.866875 87.79736328 265.38085938 C88.61140625 266.14849609 88.61140625 266.14849609 89.44189453 266.93164062 C90.93381956 268.26606921 90.93381956 268.26606921 92.98486328 268.06835938 C97.19182274 253.86102397 101.18977163 239.80423873 102.98486328 225.06835938 C103.07767578 224.34084473 103.17048828 223.61333008 103.26611328 222.86376953 C109.59421663 167.84317094 92.59158735 113.06531195 58.46533203 69.89208984 C54.97382257 65.59103844 51.26504855 61.52775169 47.41210938 57.546875 C45.92844582 56.00991528 44.46714051 54.45334172 43.00439453 52.89648438 C7.59479982 15.77019595 -44.55819879 -5.68689499 -95.54638672 -7.15039062 C-152.31918217 -8.18633326 -204.96589873 11.79436264 -246.01513672 51.06835938 Z M-140.01513672 22.06835938 C-140.83224121 22.26703613 -141.6493457 22.46571289 -142.49121094 22.67041016 C-189.7476032 34.45581716 -230.1445527 62.36181874 -256.32763672 103.63085938 C-267.19208656 121.99749774 -274.88132671 141.37503435 -280.01513672 162.06835938 C-280.19737793 162.79345703 -280.37961914 163.51855469 -280.56738281 164.265625 C-285.86217444 186.58277656 -285.5672829 214.8448093 -280.01513672 237.06835938 C-279.81645996 237.88546387 -279.6177832 238.70256836 -279.41308594 239.54443359 C-267.38116985 287.78926268 -238.69666679 329.09213264 -195.89257812 354.95507812 C-168.07485928 371.45037044 -138.21336814 379.49771394 -106.01513672 381.06835938 C-106.01513672 377.17148436 -107.30082379 376.15421355 -109.70263672 373.13085938 C-113.95733639 367.4378453 -116.68644824 361.76097219 -119.01513672 355.06835938 C-119.24974609 354.39417969 -119.48435547 353.72 -119.72607422 353.02539062 C-124.17055043 337.92061277 -122.6627987 319.30439023 -116.01513672 305.06835938 C-115.54333984 304.05644531 -115.07154297 303.04453125 -114.58544922 302.00195312 C-107.72450671 288.3621368 -97.54625243 276.99389889 -87.01513672 266.06835938 C-86.43183594 265.46314453 -85.84853516 264.85792969 -85.24755859 264.234375 C-78.38380407 257.15590448 -71.47882912 250.32672909 -63.72216797 244.21679688 C-61.30662969 242.299703 -58.96797068 240.31577563 -56.6394043 238.29467773 C-48.21795737 231.00802638 -39.28859181 224.41357367 -30.34082031 217.79248047 C-26.88778457 215.2326087 -23.45064434 212.65168496 -20.01513672 210.06835938 C-22.26678248 208.23889719 -24.51284056 206.4235395 -26.88232422 204.74804688 C-37.89563936 196.90588084 -45.36471205 186.03170336 -47.76904297 172.49804688 C-49.27467909 157.63287758 -47.06632727 143.74530708 -38.14794922 131.50585938 C-30.62679668 122.46945632 -19.89077411 114.79093476 -8.01513672 113.06835938 C-4.36627978 112.98741204 -1.25723196 113.3696808 1.98486328 115.19335938 C3.65240533 118.32000071 3.46333079 120.59946993 2.98486328 124.06835938 C0.96720079 126.57515217 -1.16420982 128.42871046 -3.72998047 130.35742188 C-9.81606264 135.12507487 -13.47966256 141.45302794 -15.01513672 149.06835938 C-15.73937348 157.3246585 -13.52131441 165.18620755 -8.51513672 171.88085938 C-2.80112442 177.82458071 4.89641097 181.38641335 13.10986328 181.69335938 C20.23000516 181.29209319 26.36173167 179.39340784 31.73486328 174.63085938 C32.47736328 173.78523437 33.21986328 172.93960938 33.98486328 172.06835938 C37.00899507 168.94171465 39.21608075 167.17260107 43.67236328 166.56835938 C46.98486328 167.06835938 46.98486328 167.06835938 48.85986328 168.13085938 C50.62197696 171.16561071 51.27767705 173.60949678 50.98486328 177.06835938 C46.62759226 192.13027218 36.25985891 202.40699221 22.98486328 210.06835938 C25.74888526 212.96612435 28.58746342 215.32824367 31.85986328 217.63085938 C45.43811945 227.37099513 58.51228032 237.95382269 70.98486328 249.06835938 C73.54086123 245.23436245 74.10383029 241.73030947 74.98486328 237.25585938 C75.15856445 236.37945801 75.33226562 235.50305664 75.51123047 234.60009766 C84.20608433 188.45864524 75.65118333 139.47746875 49.26611328 100.27148438 C42.70357755 91.05696502 35.78237625 82.28495692 27.98486328 74.06835938 C27.53916992 73.59543457 27.09347656 73.12250977 26.63427734 72.63525391 C1.89982285 46.55118436 -30.33298683 30.35456734 -65.01513672 22.06835938 C-65.75586426 21.88611816 -66.4965918 21.70387695 -67.25976562 21.51611328 C-89.60416658 16.26321902 -117.76906445 16.51058644 -140.01513672 22.06835938 Z M-32.01513672 158.06835938 C-32.47883024 166.40196243 -32.28930238 172.7919251 -28.01513672 180.06835938 C-27.41701172 181.12023437 -26.81888672 182.17210937 -26.20263672 183.25585938 C-20.86552323 190.11786243 -13.66688256 195.36801626 -5.01513672 197.06835938 C-3.59978894 197.13292816 -2.18175982 197.15446976 -0.76513672 197.13085938 C0.47236328 197.11023438 1.70986328 197.08960938 2.98486328 197.06835938 C0.75695278 195.93849048 -1.48094405 194.85342256 -3.74951172 193.80664062 C-15.50894639 188.24680428 -22.52025595 182.06115469 -28.01513672 170.06835938 C-29.2831915 166.10681235 -30.254102 162.15620302 -31.01513672 158.06835938 C-31.34513672 158.06835938 -31.67513672 158.06835938 -32.01513672 158.06835938 Z M-4.74560547 219.45507812 C-5.45773193 219.97489258 -6.1698584 220.49470703 -6.90356445 221.03027344 C-8.04160522 221.88443848 -8.04160522 221.88443848 -9.20263672 222.75585938 C-9.99420166 223.33948242 -10.7857666 223.92310547 -11.60131836 224.52441406 C-14.08182999 226.36037168 -16.55007014 228.21172762 -19.01513672 230.06835938 C-19.78277344 230.64473145 -20.55041016 231.22110352 -21.34130859 231.81494141 C-30.05669463 238.37415756 -38.6627812 245.04997718 -47.01513672 252.06835938 C-47.78059814 252.70644531 -47.78059814 252.70644531 -48.56152344 253.35742188 C-55.88424692 259.47243105 -62.98504972 265.80134807 -69.95263672 272.31835938 C-70.65018066 272.96748291 -71.34772461 273.61660645 -72.06640625 274.28540039 C-76.68519644 278.64365763 -80.92257119 283.21480255 -85.01513672 288.06835938 C-85.49845459 288.63490234 -85.98177246 289.20144531 -86.47973633 289.78515625 C-100.77056203 306.72467987 -106.71061503 322.77858948 -105.01513672 345.06835938 C-103.1627689 356.01843242 -97.02435571 365.46626695 -88.07763672 372.00585938 C-85.76033321 373.6078226 -85.76033321 373.6078226 -83.01513672 375.06835938 C-82.1616576 375.5661342 -82.1616576 375.5661342 -81.29093647 376.07396507 C-74.15695625 379.78218178 -67.20389993 379.64869277 -59.32250977 379.61767578 C-57.85297619 379.62638473 -56.38345167 379.63675591 -54.91394043 379.64865112 C-50.9446825 379.67529929 -46.97580698 379.67660327 -43.00647712 379.67152452 C-39.68175668 379.66937566 -36.35711213 379.67917602 -33.03240806 379.68873537 C-25.18194732 379.71088099 -17.33167799 379.7118264 -9.48120117 379.69970703 C-1.40860274 379.68763544 6.6632978 379.71223827 14.7357772 379.75484717 C21.68984905 379.79018994 28.64369988 379.80206445 35.59785813 379.79557168 C39.74096722 379.7919625 43.88357864 379.79705021 48.02660561 379.82500076 C51.92663302 379.85033013 55.8255809 379.84611124 59.72559357 379.82017899 C61.1476778 379.81548494 62.56984007 379.82078115 63.99183464 379.83742523 C77.45031159 379.98345618 87.10763896 375.79120426 96.79345703 366.47851562 C105.95878539 356.39828818 108.58641417 344.74967839 108.19189453 331.36523438 C106.44146841 303.49052401 81.93394154 280.08210698 62.17236328 262.63085938 C60.77840233 261.44116201 59.38236557 260.25389482 57.98486328 259.06835938 C56.65648437 257.90626953 56.65648437 257.90626953 55.30126953 256.72070312 C40.56523426 243.91421426 24.55692827 232.60591618 8.66455078 221.29296875 C7.3190651 220.31201582 6.01841119 219.26969411 4.73486328 218.20898438 C1.07231008 215.82178452 -1.60865876 217.13664117 -4.74560547 219.45507812 Z M-102.51890564 397.93994904 C-104.25025153 399.98436605 -104.25025153 399.98436605 -104.07763672 402.63085938 C-102.63635896 405.93732011 -101.27483633 406.54717567 -98.01513672 408.06835938 C-95.24292338 408.35171448 -92.69952085 408.47393661 -89.93066406 408.4493103 C-89.1213764 408.45399027 -88.31208874 408.45867025 -87.47827721 408.46349204 C-84.76904238 408.47544907 -82.06031272 408.46598209 -79.35107422 408.45654297 C-77.40773219 408.46060835 -75.46439247 408.46595005 -73.52105713 408.47247314 C-68.24426869 408.48615643 -62.9676561 408.48084387 -57.69086456 408.47133589 C-52.17053246 408.46374457 -46.6502155 408.47078343 -41.12988281 408.47549438 C-31.85918472 408.48095347 -22.58855831 408.47375629 -13.31787109 408.45947266 C-2.59724114 408.44314588 8.12321766 408.44843428 18.84384346 408.46495187 C28.04565967 408.47856236 37.24742434 408.48048853 46.44924736 408.47263587 C51.94627564 408.46795695 57.44322346 408.46734053 62.94024658 408.47724533 C68.10801462 408.48590631 73.27556181 408.47990887 78.44330597 408.46256256 C80.34079878 408.45859309 82.23831015 408.45973962 84.13579559 408.46635056 C86.72424552 408.47453792 89.311986 408.4642786 91.90039062 408.4493103 C92.65282358 408.45600247 93.40525654 408.46269463 94.18049049 408.46958959 C98.60824038 408.41986213 101.48204302 407.83600242 104.98486328 405.06835938 C106.22887606 402.68227327 106.22887606 402.68227327 105.98486328 400.06835938 C104.53631696 397.77334644 104.53631696 397.77334644 101.98486328 396.06835938 C99.14751436 395.67552984 96.69835524 395.52762516 93.86206055 395.5604248 C93.03658753 395.55418484 92.21111452 395.54794488 91.36062717 395.54151583 C88.590552 395.5255423 85.82135146 395.53820693 83.05126953 395.55078125 C81.06704189 395.54536207 79.08281827 395.53824056 77.09860229 395.52954102 C71.70608054 395.51128057 66.31386434 395.51838649 60.92133713 395.53105736 C55.28308019 395.5411709 49.64484974 395.53179626 44.0065918 395.5255127 C34.53738702 395.5182315 25.06830695 395.52783643 15.59912109 395.546875 C4.64498558 395.56864458 -6.30885216 395.56159355 -17.26298046 395.53956938 C-26.66094865 395.52142888 -36.0588271 395.51885046 -45.45680714 395.52932405 C-51.07288813 395.53556639 -56.68882908 395.53637424 -62.30490112 395.5231781 C-67.58433882 395.51163991 -72.86339188 395.51960829 -78.14278793 395.54275513 C-80.08262365 395.54805307 -82.02249164 395.54650997 -83.96231461 395.53770447 C-86.6060943 395.52680816 -89.24863378 395.5404404 -91.89233398 395.5604248 C-92.6639257 395.55150192 -93.43551741 395.54257903 -94.23049068 395.53338575 C-97.73853168 395.58498652 -99.67221094 395.81201929 -102.51890564 397.93994904 Z " fill="#000000" transform="translate(357.01513671875,55.931640625)"/>
<path d="M0 0 C0.7528125 -0.01289062 1.505625 -0.02578125 2.28125 -0.0390625 C5.71569085 0.98885113 6.62723914 2.58267571 8.5 5.625 C9.09617077 8.9334915 9.06393243 12.20104459 9.04589844 15.5559082 C9.05623611 16.55150253 9.06657379 17.54709686 9.07722473 18.57286072 C9.10667712 21.85733218 9.10815246 25.14118805 9.109375 28.42578125 C9.12435494 30.70551226 9.14108169 32.98523241 9.15948486 35.26493835 C9.20319109 41.26051326 9.2231649 47.25594176 9.23822021 53.25164795 C9.25777935 59.37162952 9.29975076 65.49145272 9.33984375 71.61132812 C9.41518148 83.6158366 9.46545152 95.62030969 9.5 107.625 C10.0470459 107.89489746 10.5940918 108.16479492 11.15771484 108.44287109 C11.87652832 108.79945801 12.5953418 109.15604492 13.3359375 109.5234375 C14.0479834 109.87583496 14.7600293 110.22823242 15.49365234 110.59130859 C22.26605035 114.08051925 26.7194966 120.35812168 29.15234375 127.5546875 C30.79405514 137.33117104 29.61942145 145.96942228 24.40234375 154.3984375 C20.19288582 160.02056098 13.3226324 164.18175084 6.5 165.625 C-3.29742511 166.29430084 -3.29742511 166.29430084 -7.75453186 164.93991089 C-12.69369637 163.44033317 -12.69369637 163.44033317 -17.53591919 164.59570312 C-19.53518291 166.25379954 -21.26210198 168.0098936 -23.01171875 169.9296875 C-23.66904495 170.6016214 -24.32637115 171.2735553 -25.00361633 171.96585083 C-27.09473026 174.1173139 -29.14023127 176.30685946 -31.1875 178.5 C-32.57340384 179.93756953 -33.96205352 181.37249728 -35.35351562 182.8046875 C-41.02062964 188.67178654 -46.55692411 194.62216476 -51.88313293 200.80154419 C-58.3555859 208.10098904 -58.3555859 208.10098904 -62.578125 209.1328125 C-65.89395293 209.31702516 -68.16076239 208.82854256 -71 207.125 C-72.69293243 204.30344596 -73.25080545 202.04841928 -73.07273865 198.74780273 C-71.08063547 191.36425688 -61.78761186 184.92243951 -56.43359375 179.8125 C-54.71415483 178.14460944 -52.99609462 176.47529657 -51.27929688 174.8046875 C-48.59828871 172.19795301 -45.91104705 169.59987052 -43.19995117 167.02441406 C-40.56698654 164.51836502 -37.96706469 161.98177808 -35.37109375 159.4375 C-34.55152695 158.67268311 -33.73196014 157.90786621 -32.88755798 157.11987305 C-28.86284198 153.41190422 -28.86284198 153.41190422 -27.4520874 148.41342163 C-28.00697366 145.97834145 -28.00697366 145.97834145 -29.5 142.625 C-30.53888426 132.50191853 -29.08159325 124.01155074 -22.875 115.8125 C-20.29870166 113.07458564 -17.66779984 111.54900824 -14.2890625 109.92578125 C-12.94255615 109.27283081 -12.94255615 109.27283081 -11.56884766 108.60668945 C-10.88612793 108.28273193 -10.2034082 107.95877441 -9.5 107.625 C-9.49635437 106.35823929 -9.49270874 105.09147858 -9.48895264 103.78633118 C-9.45202421 91.85294071 -9.39427489 79.91980881 -9.31609726 67.98661518 C-9.27657477 61.85149878 -9.24440957 55.71652695 -9.22900391 49.58129883 C-9.21386897 43.66132486 -9.17947918 37.74174821 -9.13169098 31.82195091 C-9.1168446 29.56254719 -9.10895713 27.30308676 -9.10811615 25.04363441 C-9.10575461 21.88062722 -9.0787393 18.71872528 -9.04589844 15.5559082 C-9.05344398 14.15220978 -9.05344398 14.15220978 -9.06114197 12.72015381 C-8.99325297 8.49872589 -8.86037055 6.21042662 -6.60455322 2.54582214 C-4.2062983 0.35693896 -3.20718949 -0.05491763 0 0 Z M-11.5 129.625 C-12.75255236 133.38265708 -13.26715326 136.73951081 -12.5 140.625 C-10.1591037 144.49933153 -7.82698484 147.18267172 -3.5 148.625 C0.69171681 149.02044498 2.98075302 148.89460901 6.75 146.9375 C10.71963737 143.59939585 12.27828086 141.36707896 12.9375 136.1875 C12.29673956 130.96987925 10.23597372 128.03254626 6.1875 124.75 C-0.8391767 121.80860045 -6.76002733 123.9370328 -11.5 129.625 Z " fill="#000000" transform="translate(254.5,119.375)"/>
</svg>
