<?xml version="1.0" encoding="UTF-8"?>
<svg version="1.1" xmlns="http://www.w3.org/2000/svg" width="512" height="512">
<path d="M0 0 C0.81176193 -0.00979385 1.62352386 -0.01958771 2.45988464 -0.02967834 C20.42209711 -0.20170332 37.75572087 -0.02748286 55.3125 4.23828125 C56.18745117 4.44195313 57.06240234 4.645625 57.96386719 4.85546875 C101.27108341 15.18416809 139.81787087 41.70916841 166.3125 77.23828125 C166.93769531 78.0684375 167.56289063 78.89859375 168.20703125 79.75390625 C178.44026406 93.8455711 185.97688889 109.06414951 192.3125 125.23828125 C192.57401855 125.90005371 192.83553711 126.56182617 193.10498047 127.24365234 C199.56829273 143.95138183 203.41024583 162.92933981 203.515625 180.84765625 C203.52268463 181.64802307 203.52974426 182.44838989 203.53701782 183.27301025 C203.76330139 216.46153425 203.76330139 216.46153425 200.3125 231.23828125 C200.01448486 232.56424316 200.01448486 232.56424316 199.71044922 233.91699219 C187.85663901 285.64755269 160.3986589 331.95782244 126.765625 372.48095703 C124.67634079 375.00761492 122.62278732 377.56296032 120.5625 380.11328125 C116.97845119 384.49159729 113.24849748 388.71302012 109.4375 392.89453125 C107.48755276 395.04520836 105.58223871 397.22653096 103.6875 399.42578125 C100.93598308 402.58939172 98.03275183 405.53957912 95.04296875 408.4765625 C93.31798519 410.23269701 91.72067536 412.0519252 90.125 413.92578125 C83.38420104 421.72931879 75.95295115 428.98156718 68.10546875 435.6640625 C66.25820371 437.28595315 64.53493286 438.9848833 62.8125 440.73828125 C59.14969951 444.45024685 55.27185108 447.84728863 51.3125 451.23828125 C50.23417305 452.16903691 49.15606534 453.10004662 48.078125 454.03125 C40.91281742 460.21080662 33.71786475 466.34666018 26.3125 472.23828125 C25.3740625 473.00785156 24.435625 473.77742188 23.46875 474.5703125 C22.5303125 475.30636719 21.591875 476.04242188 20.625 476.80078125 C19.79613281 477.46207031 18.96726562 478.12335938 18.11328125 478.8046875 C14.45814995 480.67558455 11.29229957 481.02681051 7.3125 480.23828125 C4.86557894 478.82443905 3.08939095 477.61090533 1 475.80078125 C0.44368896 475.34558105 -0.11262207 474.89038086 -0.68579102 474.42138672 C-1.82431832 473.48686922 -2.95617057 472.54415767 -4.08105469 471.59326172 C-6.39523756 469.64132936 -8.76545371 467.75996669 -11.125 465.86328125 C-12.98383869 464.32725102 -14.8377317 462.78522254 -16.6875 461.23828125 C-17.21424316 460.79790527 -17.74098633 460.3575293 -18.28369141 459.90380859 C-27.08036864 452.52404581 -35.52156076 444.81582034 -43.87353516 436.93896484 C-46.16662035 434.78908174 -48.48420947 432.66692518 -50.80395508 430.54589844 C-59.30109277 422.76881411 -67.59081461 414.83725556 -75.078125 406.06640625 C-76.71336434 404.20890137 -78.42231793 402.47222116 -80.1875 400.73828125 C-83.89963453 397.07542284 -87.3013765 393.20203758 -90.6875 389.23828125 C-91.48929687 388.31402344 -92.29109375 387.38976562 -93.1171875 386.4375 C-100.10941985 378.3287848 -106.64371054 369.91096579 -113.08203125 361.35839844 C-114.60239439 359.35066828 -116.14128056 357.35894447 -117.6875 355.37109375 C-129.39879441 340.21130106 -139.57741448 323.92473893 -148.68603516 307.08105469 C-149.68560577 305.24176679 -150.70609474 303.41541234 -151.73046875 301.58984375 C-168.11932843 272.08358229 -180.5758808 236.75756753 -180.92578125 202.76953125 C-180.93552979 201.97987473 -180.94527832 201.1902182 -180.95532227 200.37663269 C-181.12926179 182.62838699 -180.7967127 165.60390322 -176.6875 148.23828125 C-176.51621582 147.46436035 -176.34493164 146.69043945 -176.16845703 145.89306641 C-166.42806992 102.5806246 -138.98150965 63.55759016 -103.6875 37.23828125 C-102.85734375 36.61308594 -102.0271875 35.98789062 -101.171875 35.34375 C-87.08021015 25.11051719 -71.86163174 17.57389236 -55.6875 11.23828125 C-55.02572754 10.9767627 -54.36395508 10.71524414 -53.68212891 10.44580078 C-36.9320364 3.96610057 -17.95798621 0.17965746 0 0 Z M-79.6875 81.23828125 C-80.52667969 81.96917969 -81.36585938 82.70007813 -82.23046875 83.453125 C-84.7487936 85.68189964 -87.22581652 87.9472095 -89.6875 90.23828125 C-90.36554688 90.8621875 -91.04359375 91.48609375 -91.7421875 92.12890625 C-118.72180687 117.91665488 -131.32895776 154.65514387 -132.6875 191.23828125 C-133.37098654 229.9128679 -116.8221334 265.2205963 -91 293.14453125 C-64.68237568 320.38021224 -27.98017365 335.53518835 9.78955078 336.24511719 C48.81632589 336.13937404 85.76858494 320.79152059 113.3125 293.23828125 C130.30420228 276.01574405 142.88340959 254.87948117 149.625 231.61328125 C149.98875732 230.36212524 149.98875732 230.36212524 150.35986328 229.08569336 C153.69690762 216.95559614 154.69272131 205.03973098 154.625 192.48828125 C154.62317719 191.78484589 154.62135437 191.08141052 154.61947632 190.35665894 C154.57301679 179.6956348 154.01727003 169.60113509 151.3125 159.23828125 C151.14089355 158.5534668 150.96928711 157.86865234 150.79248047 157.16308594 C144.7219092 133.26055062 133.18630044 112.22612387 116.3125 94.23828125 C115.85375488 93.74247559 115.39500977 93.24666992 114.92236328 92.73583984 C88.59410285 64.49245208 52.45229118 50.22537411 14.3125 48.23828125 C-19.12929363 47.2803132 -54.51869216 59.02539557 -79.6875 81.23828125 Z " fill="#000000" transform="translate(244.6875,15.76171875)"/>
<path d="M0 0 C2.9375 2.125 2.9375 2.125 5 5 C5.55405751 8.87840257 5.32106991 11.79471299 3 15 C1.35857037 16.0409066 -0.30712215 17.04504326 -2 18 C-3.39935013 20.79870027 -3.25265405 22.90498792 -3 26 C-2 28 -2 28 0 29 C2.95746492 29.58345476 2.95746492 29.58345476 6 29 C8.09942969 27.26047255 9.64554496 25.45572791 11.3125 23.3125 C14.07281426 21.16558891 16.57020046 21.11826895 20 21 C22.94755732 22.34562399 24.54277272 23.08554544 26 26 C26.38794722 30.03465108 26.29417585 32.42341534 24.4375 36.0625 C20.68090548 40.58967801 16.97288655 44.88663299 11 46 C12.91309198 58.05247945 19.84777271 66.45584846 29.37695312 73.8425293 C31.87291322 75.62122251 34.39425567 77.35215366 36.9375 79.0625 C43.47103442 83.50650314 49.80492597 88.09419232 56 93 C56.55187988 93.41572266 57.10375977 93.83144531 57.67236328 94.25976562 C66.84767707 101.39184969 73.04096481 112.62346355 75 124 C75.31531029 127.60862866 75.38028694 131.19125756 75.375 134.8125 C75.37556396 135.7828418 75.37612793 136.75318359 75.37670898 137.75292969 C75.26884051 144.7720431 74.33749755 150.72711304 71 157 C70.67 157.66 70.34 158.32 70 159 C25.78 159 -18.44 159 -64 159 C-70.27123171 144.88972865 -71.74775895 128.49702858 -66.265625 113.69140625 C-64.26123361 109.42898134 -61.89813312 105.70520817 -59 102 C-58.58363281 101.42121094 -58.16726562 100.84242188 -57.73828125 100.24609375 C-50.83322558 91.30891959 -40.1698159 85.04331927 -30.8515625 78.93359375 C-20.71862025 72.06262606 -8.58707784 63.44412905 -5.47265625 50.87109375 C-5.13667643 48.77725928 -5.13667643 48.77725928 -5 46 C-5.66 45.814375 -6.32 45.62875 -7 45.4375 C-12.48108616 42.81114621 -16.68159604 39.01880607 -20 33.9375 C-22.33318561 27.19718602 -22.37756782 18.11056544 -19.5 11.5625 C-15.10375755 4.22488671 -8.64561272 -0.87921485 0 0 Z " fill="#000000" transform="translate(253,89)"/>
<path d="M0 0 C1.05549545 -0.00852997 2.11099091 -0.01705994 3.19847107 -0.02584839 C4.34611938 -0.02494202 5.4937677 -0.02403564 6.67619324 -0.02310181 C7.89302292 -0.02981903 9.1098526 -0.03653625 10.36355591 -0.04345703 C13.69434575 -0.05918574 17.02488621 -0.06581125 20.35569596 -0.0670886 C22.43944946 -0.06851251 24.52317702 -0.07278667 26.60692406 -0.07808304 C33.88458789 -0.09657517 41.16217857 -0.10475481 48.43986511 -0.10317993 C55.21037932 -0.10197923 61.98057438 -0.12306942 68.75100785 -0.15466726 C74.57455524 -0.18087175 80.39799867 -0.19154547 86.22160453 -0.19026911 C89.69498816 -0.18976063 93.16808813 -0.19537977 96.64141273 -0.21662521 C100.51901688 -0.23969678 104.396188 -0.23046115 108.27384949 -0.21841431 C109.41542511 -0.22965332 110.55700073 -0.24089233 111.73316956 -0.25247192 C119.51371498 -0.19112457 124.89737777 0.96222885 130.91130066 6.23226929 C131.45012878 6.88324585 131.98895691 7.53422241 132.54411316 8.20492554 C133.09841003 8.85332397 133.65270691 9.50172241 134.22380066 10.16976929 C137.04279875 14.26112598 137.97539874 17.88935902 138.04411316 22.82992554 C138.07247253 23.7593396 138.10083191 24.68875366 138.13005066 25.64633179 C137.5214238 29.10725234 136.40636964 30.10111213 133.66911316 32.26742554 C130.81425476 32.7707901 130.81425476 32.7707901 127.44450378 32.77536011 C126.16583435 32.7866394 124.88716492 32.7979187 123.56974792 32.80953979 C122.15495074 32.80176277 120.74015579 32.79357011 119.32536316 32.78500366 C117.83373837 32.79042445 116.34211893 32.79754688 114.85050964 32.8062439 C110.80088688 32.82448558 106.75167155 32.81740643 102.70204163 32.80472755 C98.4651428 32.79460418 94.22827897 32.80399138 89.99137878 32.81027222 C82.87608066 32.81755057 75.76094858 32.80795605 68.64567566 32.78890991 C60.41808516 32.76714073 52.19089113 32.77419197 43.96331024 32.79621553 C36.90077062 32.81436424 29.83835039 32.81693047 22.77579498 32.80646086 C18.55698141 32.80022298 14.33835423 32.79939828 10.11955261 32.81260681 C6.15330943 32.82415709 2.18757767 32.81615516 -1.77861023 32.79302979 C-3.23467662 32.78773822 -4.69078601 32.7892642 -6.14683533 32.79808044 C-8.13330047 32.80899988 -10.1198596 32.79288254 -12.10627747 32.77536011 C-13.7743042 32.77309795 -13.7743042 32.77309795 -15.47602844 32.7707901 C-18.99227822 32.15080995 -20.17165791 31.05875074 -22.33088684 28.26742554 C-23.58232701 22.34148826 -22.76155827 16.35659392 -19.73323059 11.11898804 C-14.62984052 4.38080728 -8.60746117 0.03155824 0 0 Z " fill="#000000" transform="translate(198.3308868408203,263.7325744628906)"/>
</svg>
