<?xml version="1.0" encoding="UTF-8"?>
<svg width="1200pt" height="1200pt" version="1.1" viewBox="0 0 1200 1200" xmlns="http://www.w3.org/2000/svg">
 <path d="m601.08 1158c291.47 0 530.86-218.63 556.78-508.55 0.84375-9.1406-5.2969-17.297-14.156-19.219s-17.859 3.1406-20.766 11.766c-61.688 179.53-230.63 300.14-420.47 300.14-245.06 0-444.47-199.45-444.47-444.47 0-189.84 120.61-358.92 300.14-420.47 8.625-3 13.688-11.859 11.766-20.766-1.9219-8.8594-10.078-15-19.219-14.156-290.06 25.781-508.69 265.18-508.69 556.64 0 308.29 250.78 559.08 559.08 559.08zm-178.08-1051.5c-123.84 88.688-201 233.16-201 390.94 0 264.94 215.53 480.47 480.47 480.47 157.92 0 302.39-77.156 390.94-201-72.609 203.53-265.69 345-492.37 345-288.47 0-523.08-234.61-523.08-523.08 0-226.69 141.37-419.76 345-492.37z"/>
 <path d="m523.22 364.92c-2.2969 6.9375 0 14.625 5.5312 19.312l123.61 103.31-39.234 156.24c-1.7812 7.0781 0.9375 14.625 6.8438 18.938 6 4.3125 13.922 4.5469 20.156 0.70312l136.45-85.688 136.45 85.688c2.8594 1.7812 6.2344 2.7656 9.6094 2.7656 3.7031 0 7.4531-1.2188 10.547-3.4688 6-4.3125 8.625-11.859 6.8438-18.938l-39.234-156.24 123.61-103.31c5.625-4.6875 7.7812-12.375 5.5312-19.312-2.2969-6.9375-8.5312-11.859-15.938-12.375l-160.69-10.922-60-149.53c-2.7656-6.8438-9.375-11.297-16.688-11.297s-13.922 4.4531-16.688 11.297l-60 149.53-160.69 10.922c-7.3125 0.46875-13.688 5.3906-15.938 12.375zm190.31 11.859c6.8438-0.46875 12.938-4.7812 15.469-11.297l47.531-118.31 47.531 118.31c2.5312 6.375 8.625 10.781 15.469 11.297l127.31 8.625-97.922 81.844c-5.2969 4.4531-7.5469 11.531-5.8594 18.234l31.078 123.71-108-67.781c-5.8594-3.7031-13.312-3.7031-19.078 0l-108 67.781 31.078-123.71c1.6875-6.7031-0.60938-13.781-5.8594-18.234l-97.922-81.844 127.31-8.625z"/>
</svg>
