<?xml version="1.0" encoding="UTF-8"?>
<svg version="1.1" xmlns="http://www.w3.org/2000/svg" width="512" height="512">
<path d="M0 0 C2.91234227 1.50216329 5.62905244 3.2780195 8.375 5.0625 C31.32203435 19.48936378 54.39046151 28.30010586 81.5625 30 C104.58581725 31.46740623 125.09455692 36.85214619 141.2734375 54.4765625 C152 67.35641264 152 67.35641264 152 73 C152.66 73 153.32 73 154 73 C154.37898438 71.68322266 154.37898438 71.68322266 154.765625 70.33984375 C156.7955945 64.84736298 160.4434292 60.59866621 164 56 C164.48597656 55.34515625 164.97195313 54.6903125 165.47265625 54.015625 C175.93996383 40.71024276 193.60127394 33.3457455 210 31 C214.61940061 30.56869408 219.24416606 30.27862502 223.875 30 C253.30070895 28.20968037 279.85428403 18.34722384 303.94140625 1.19067383 C307.58292863 -0.915553 309.87446631 -0.75634784 314 0 C318.86616806 4.07971666 322.12424815 9.31536852 325.625 14.5625 C326.7622941 16.25179157 327.90029052 17.94061058 329.0390625 19.62890625 C329.53615723 20.37213135 330.03325195 21.11535645 330.54541016 21.88110352 C331.97632374 23.96551087 333.46844118 25.98872715 335 28 C338.24983135 26.91215032 338.24983135 26.91215032 341 25 C346.6302521 24.43697479 346.6302521 24.43697479 349 25 C352.99822494 28.4197854 355.95110517 32.46415466 358.9375 36.75 C359.3691748 37.36182129 359.80084961 37.97364258 360.24560547 38.60400391 C363.57962929 43.34747289 366.83737552 48.1403575 370 53 C373.00865527 51.86667209 375.32546173 50.77624506 378 48.9375 C380.94429111 47.03597866 382.52554374 46.08686141 386 46 C389.37565821 47.19140878 391.42699822 47.93811233 393.15917969 51.14819336 C394.18717382 54.63483666 394.28705491 57.90306806 394.265625 61.50390625 C394.26753845 62.22303696 394.2694519 62.94216766 394.27142334 63.68309021 C394.27278057 65.20352529 394.26911645 66.72397214 394.26074219 68.24438477 C394.25014579 70.53103891 394.26059544 72.81688752 394.2734375 75.10351562 C394.29021232 90.41829719 393.25470599 103.94355276 381.92578125 115.39453125 C377.2511824 119.95858375 372.24266006 123.49452377 366.75 127 C364.60439678 128.40070307 362.45994148 129.80316552 360.31640625 131.20703125 C359.74094559 131.5822139 359.16548492 131.95739655 358.57258606 132.34394836 C351.65958976 136.85657021 344.83022107 141.49237933 337.9961853 146.12332153 C334.06698699 148.78542857 330.13485174 151.44319186 326.203125 154.1015625 C325.39082932 154.65092972 324.57853363 155.20029694 323.74162292 155.76631165 C314.42421252 162.06728405 305.10034541 168.35868153 295.77529907 174.64834595 C293.90620502 175.90908847 292.03720443 177.16996957 290.16830444 178.43099976 C273.72639365 189.5250149 273.72639365 189.5250149 267.05078125 193.96484375 C259.03597375 199.29658867 251.06671687 204.69613668 243.08901978 210.0831604 C227.6891831 220.48076912 212.27718467 230.85798832 196.79931641 241.13916016 C191.36222573 244.75345504 185.9317269 248.37765153 180.5 252 C178.4687739 253.35420252 176.43752629 254.70837277 174.40625 256.0625 C173.55353516 256.63097656 172.70082031 257.19945312 171.82226562 257.78515625 C171.22091797 258.18605469 170.61957031 258.58695312 170 259 C172.63474175 261.76509685 175.25260956 263.99140355 178.4453125 266.08203125 C179.34088867 266.67306641 180.23646484 267.26410156 181.15917969 267.87304688 C182.13790039 268.51306641 183.11662109 269.15308594 184.125 269.8125 C186.27947651 271.23444102 188.43319892 272.65746582 190.5859375 274.08203125 C191.16371948 274.46384552 191.74150146 274.84565979 192.33679199 275.23904419 C200.18243806 280.43134184 207.96285313 285.72058019 215.75 291 C217.19024175 291.9763555 218.63050818 292.95267459 220.07080078 293.92895508 C220.76297699 294.39928665 221.4551532 294.86961823 222.16830444 295.35420227 C223.54016082 296.28100219 224.91680769 297.20075229 226.29824829 298.11320496 C229.30598234 300.10813153 232.09267022 302.08016278 234.82910156 304.44726562 C244.62818625 312.55166401 256.22437567 310.8813661 268.25 310.5 C270.45957066 310.45980831 272.66921191 310.42331762 274.87890625 310.390625 C280.25416221 310.30311533 285.62674665 310.16979719 291 310 C290.28306725 309.52830887 290.28306725 309.52830887 289.551651 309.04708862 C278.3335548 301.66574446 267.12072571 294.27648336 255.91400146 286.87788391 C250.35297358 283.20774054 244.78645925 279.54625396 239.21195984 275.89660645 C236.14189072 273.88459297 233.07666316 271.86529847 230.01266479 269.84405518 C228.5924147 268.90954939 227.16999749 267.97832851 225.74539185 267.05047607 C223.78026933 265.76997145 221.82297766 264.47829082 219.8671875 263.18359375 C218.77519043 262.46743896 217.68319336 261.75128418 216.55810547 261.01342773 C214.07393095 259.0581894 212.95923498 257.97227211 212 255 C212.25857719 250.86276502 212.86297104 247.82332607 216 245 C220.30085555 243.83381221 222.36564638 243.70559244 226.4519043 245.60205078 C227.69335754 246.40477655 228.92096654 247.22916959 230.13671875 248.0703125 C231.15918953 248.74333908 231.15918953 248.74333908 232.20231628 249.42996216 C234.48048709 250.93565754 236.73941686 252.46805203 239 254 C240.6401186 255.08890518 242.28159352 256.17576982 243.92431641 257.26074219 C250.13584334 261.37226663 256.31784904 265.52746274 262.5012207 269.68115234 C272.66601759 276.50459282 282.87177083 283.23133677 293.24552917 289.7333374 C300.03386753 293.99640368 306.71390094 298.40447095 313.34130859 302.91308594 C315.18601694 304.16645744 317.03625225 305.41139945 318.88671875 306.65625 C320.07324817 307.46044862 321.25946011 308.26511588 322.4453125 309.0703125 C323.49219238 309.77945801 324.53907227 310.48860352 325.61767578 311.21923828 C328 313 328 313 329 315 C329.58129215 322.20802265 329.58129215 322.20802265 327.47392273 325.07919312 C324.11676612 327.6857618 321.08480659 327.69404046 316.99145508 327.80322266 C316.18556442 327.8391452 315.37967377 327.87506775 314.54936218 327.91207886 C311.87293882 328.02171968 309.19736297 328.09761719 306.51953125 328.1640625 C305.59352301 328.18785351 304.66751476 328.21164452 303.71344566 328.23615646 C298.78026405 328.35500451 293.84745878 328.44245895 288.91333008 328.51025391 C284.89341638 328.57171483 280.88356408 328.6953104 276.86743164 328.87939453 C247.94470931 330.17349554 230.03581226 326.26426811 207.51174927 307.81427002 C202.46118525 303.70233611 197.03398345 300.20465701 191.58203125 296.6484375 C189.75478484 295.42019497 187.92984345 294.18851511 186.10742188 292.953125 C185.23657959 292.36466797 184.3657373 291.77621094 183.46850586 291.16992188 C182.59202393 290.57759766 181.71554199 289.98527344 180.8125 289.375 C178.02893376 287.49518903 175.24518371 285.61565064 172.46134949 283.73623657 C170.7704901 282.59457899 169.07981148 281.45265359 167.38935852 280.31039429 C165.91551643 279.31478676 164.43903886 278.32306427 162.9593811 277.33612061 C161.7176731 276.48938811 160.49355303 275.6157538 159.29623413 274.70733643 C156.26987995 272.44098753 156.26987995 272.44098753 152.60447693 272.23664856 C149.85865989 273.04142566 147.94791303 274.07086652 145.56787109 275.64868164 C144.72284027 276.20338638 143.87780945 276.75809113 143.00717163 277.3296051 C142.10503937 277.93368698 141.2029071 278.53776886 140.2734375 279.16015625 C139.32997467 279.78345322 138.38651184 280.40675018 137.41445923 281.04893494 C135.41657275 282.3709326 133.42121809 283.69676328 131.42822266 285.02612305 C128.41187619 287.03790506 125.38840299 289.03855344 122.36328125 291.03710938 C120.41623362 292.3274718 118.46960589 293.6184681 116.5234375 294.91015625 C115.63345062 295.50006851 114.74346375 296.08998077 113.82650757 296.69776917 C105.51896223 302.243896 97.38610788 307.9051649 89.83349609 314.45385742 C70.46969589 330.24714966 50.69564316 329.2141261 26.65441895 328.40045166 C22.57069141 328.28189077 18.48790826 328.24429789 14.40273476 328.20933247 C9.51011869 328.16475684 4.61848891 328.08012934 -0.2734375 327.98828125 C-1.1977998 327.97318323 -2.12216209 327.95808521 -3.07453537 327.94252968 C-5.67766133 327.89156735 -8.27829435 327.81269308 -10.88037109 327.72387695 C-11.64800781 327.71155029 -12.41564453 327.69922363 -13.20654297 327.68652344 C-16.68916721 327.53870538 -18.65817629 327.26476269 -21.44888306 325.10319519 C-23.31887515 322.56762983 -23.92476395 321.15991389 -24 318 C-21.86289682 312.05182383 -18.40511185 309.75506022 -13.28515625 306.52734375 C-12.49971436 306.01587799 -11.71427246 305.50441223 -10.9050293 304.97744751 C-8.29903993 303.28443585 -5.68081551 301.61137246 -3.0625 299.9375 C-1.21376396 298.74039139 0.63395585 297.54171207 2.48071289 296.34155273 C6.35841622 293.82312539 10.24023679 291.31123325 14.125 288.80371094 C22.5211981 283.37680703 30.86531054 277.87113076 39.20861816 272.36340332 C41.9501893 270.5541258 44.69320324 268.74705386 47.43652344 266.94042969 C61.27851438 257.82048134 75.06840981 248.623744 88.847229 239.40872192 C100.41712313 231.67392606 112.02982269 224.02358399 123.8112793 216.61401367 C124.70500244 216.05045166 125.59872559 215.48688965 126.51953125 214.90625 C127.27339111 214.43509766 128.02725098 213.96394531 128.80395508 213.47851562 C131.31991107 211.78461574 133.65451059 209.92117069 136 208 C113.59922128 193.02861657 91.1673866 178.10668282 68.65930176 163.29702759 C55.15600532 154.41161078 41.68023234 145.48684898 28.25170898 136.48876953 C20.50174343 131.30096314 12.70192653 126.19475878 4.87702942 121.12069702 C-4.1144895 115.28615226 -13.06103188 109.38408509 -22.0057373 103.4781189 C-37.97213853 92.93656514 -53.94933111 82.4129685 -70 72 C-70.86029539 88.24302483 -70.86029539 88.24302483 -63.83886719 102.14614868 C-60.67815812 105.332613 -57.02884965 107.66752012 -53.26953125 110.08984375 C-52.43846359 110.6380629 -51.60739594 111.18628204 -50.75114441 111.75111389 C-48.1113542 113.48993703 -45.46248931 115.2142697 -42.8125 116.9375 C-39.33712638 119.21332054 -35.8654595 121.49475069 -32.39453125 123.77734375 C-31.55383087 124.32894669 -30.71313049 124.88054962 -29.84695435 125.4488678 C-24.76394562 128.79591358 -19.813921 132.27020549 -14.92456055 135.89526367 C-8.63727558 140.4200724 -2.13234557 144.6354325 4.32394409 148.91378784 C8.97114064 151.99398844 13.61250082 155.08295755 18.25390625 158.171875 C19.21518936 158.81148666 20.17647247 159.45109833 21.16688538 160.11009216 C31.7839412 167.17939034 42.36385987 174.30348765 52.9375 181.4375 C53.81140381 182.02671234 54.68530762 182.61592468 55.58569336 183.22299194 C60.56476476 186.58045481 65.53914179 189.94471908 70.50946045 193.31512451 C73.13665102 195.09244581 75.76964989 196.86096455 78.40283203 198.62939453 C80.14502001 199.80607345 81.88705013 200.98298613 83.62890625 202.16015625 C84.44109116 202.70280624 85.25327606 203.24545624 86.09007263 203.80455017 C86.83708939 204.31127762 87.58410614 204.81800507 88.35375977 205.34008789 C89.01158951 205.78268448 89.66941925 206.22528107 90.34718323 206.68128967 C92 208 92 208 94 211 C94.41974413 214.84765451 94.59452825 217.09631706 92.4375 220.375 C89.1552219 222.5631854 86.94815614 222.86246177 83 223 C80.25740114 221.96361942 77.96885742 220.40820348 75.5625 218.75 C74.96501953 218.36070312 74.36753906 217.97140625 73.75195312 217.5703125 C69.70977585 214.91087801 65.74459381 212.13604266 61.75950623 209.3921051 C61.10539261 208.94173386 60.45127899 208.49136261 59.77734375 208.02734375 C58.75804527 207.32526039 58.75804527 207.32526039 57.71815491 206.60899353 C48.52045282 200.28199216 39.25804656 194.05069153 30 187.8125 C29.04924591 187.17149353 28.09849182 186.53048706 27.118927 185.87005615 C15.68216333 178.15944413 4.23250578 170.46973186 -7.25537109 162.83544922 C-19.54236289 154.65944452 -31.75379733 146.3711266 -43.96559143 138.0834198 C-48.22493626 135.19526971 -52.49756553 132.32848601 -56.78125 129.4765625 C-57.78269043 128.80568604 -58.78413086 128.13480957 -59.81591797 127.44360352 C-61.60702054 126.24419057 -63.40249428 125.05126181 -65.20361328 123.86694336 C-72.59902804 118.89224316 -79.32590953 113.31011504 -83.4375 105.25 C-84.14712891 103.89648438 -84.14712891 103.89648438 -84.87109375 102.515625 C-86.54648413 98.78222914 -87.12540108 95.55907589 -87.17700195 91.47851562 C-87.18983719 90.59079468 -87.20267242 89.70307373 -87.21589661 88.78845215 C-87.22328354 87.83732544 -87.23067047 86.88619873 -87.23828125 85.90625 C-87.246353 84.92257446 -87.25442474 83.93889893 -87.26274109 82.92541504 C-87.27655519 80.84759268 -87.28728927 78.76974788 -87.29516602 76.69189453 C-87.31243694 73.51161165 -87.35635367 70.33235313 -87.40039062 67.15234375 C-87.41051307 65.13282013 -87.41903057 63.1132877 -87.42578125 61.09375 C-87.44328934 60.14262329 -87.46079742 59.19149658 -87.47883606 58.21154785 C-87.45712128 51.62251338 -87.45712128 51.62251338 -85.11401367 48.43164062 C-82.48462254 46.65097893 -81.20795107 46 -78 46 C-73.53261765 47.676383 -69.76747267 50.1019441 -66 53 C-65.34 53 -64.68 53 -64 53 C-62.58137793 51.32323953 -62.58137793 51.32323953 -61.171875 49.125 C-60.61886719 48.30386719 -60.06585938 47.48273438 -59.49609375 46.63671875 C-58.63177734 45.33154297 -58.63177734 45.33154297 -57.75 44 C-46.08477509 26.54238754 -46.08477509 26.54238754 -43 25 C-35.11864407 24.49152542 -35.11864407 24.49152542 -31 28 C-27.19810009 26.73270003 -26.56711281 25.30267629 -24.34765625 22.01171875 C-23.65349609 20.99529297 -22.95933594 19.97886719 -22.24414062 18.93164062 C-21.52419922 17.86107422 -20.80425781 16.79050781 -20.0625 15.6875 C-18.64054608 13.58464645 -17.21489493 11.48428717 -15.78515625 9.38671875 C-15.15488525 8.45045654 -14.52461426 7.51419434 -13.87524414 6.54956055 C-9.6559429 0.81304671 -7.1841355 -1.85796608 0 0 Z M-2 20 C-4.04155642 22.73515927 -6.05437331 25.49022812 -8.0625 28.25 C-8.64322266 29.02730469 -9.22394531 29.80460937 -9.82226562 30.60546875 C-10.36689453 31.35957031 -10.91152344 32.11367187 -11.47265625 32.890625 C-11.98062744 33.58188477 -12.48859863 34.27314453 -13.01196289 34.98535156 C-14.1943031 36.92926731 -14.1943031 36.92926731 -13.74760437 38.99073792 C-12.46537659 42.43685428 -9.09355257 43.74505246 -6.046875 45.51171875 C-4.57081664 46.40042984 -3.09625802 47.29163562 -1.62304688 48.18505859 C-0.85694092 48.64732849 -0.09083496 49.10959839 0.69848633 49.58587646 C4.37689096 51.8460058 7.96225024 54.2393378 11.546875 56.64453125 C12.27881073 57.13418365 13.01074646 57.62383606 13.76486206 58.12832642 C15.29634561 59.15375239 16.82724789 60.18004696 18.35760498 61.20715332 C22.59646348 64.05151529 26.84117542 66.88711484 31.0859375 69.72265625 C31.9729837 70.31533295 32.86002991 70.90800964 33.7739563 71.51864624 C43.94439211 78.30780822 54.15927682 85.02926433 64.375 91.75 C78.29686001 100.91014911 92.19185845 110.10819284 106.0473938 119.36834717 C114.88989819 125.27698452 123.74894255 131.15619461 132.69555664 136.90673828 C136.07277076 139.07899074 139.41940018 141.27086275 142.6953125 143.59375 C143.76523438 144.3465625 144.83515625 145.099375 145.9375 145.875 C147.25041016 146.83019531 147.25041016 146.83019531 148.58984375 147.8046875 C151.7094035 149.35182734 152.6808288 148.9992611 156 148 C158.44786663 146.64378371 160.76667333 145.25625557 163.109375 143.73828125 C163.80520691 143.29511063 164.50103882 142.85194 165.21795654 142.39533997 C173.09612318 137.35091331 180.87160362 132.14875198 188.64016724 126.93780518 C193.22891472 123.86032505 197.82340268 120.7914401 202.41796875 117.72265625 C203.84440956 116.76972687 203.84440956 116.76972687 205.29966736 115.79754639 C215.6908896 108.86156357 226.12505682 101.99114598 236.5625 95.125 C250.35247431 86.05219128 264.11610934 76.94231134 277.84002686 67.76989746 C289.13329709 60.22349711 300.48602477 52.77495056 311.88037109 45.38183594 C314.60086468 43.60828218 317.30333827 41.80954388 320 40 C319.38387674 36.84888205 318.33481347 34.73007897 316.49609375 32.109375 C316.00302734 31.40039062 315.50996094 30.69140625 315.00195312 29.9609375 C314.48568359 29.23132813 313.96941406 28.50171875 313.4375 27.75 C312.65729492 26.63238281 312.65729492 26.63238281 311.86132812 25.4921875 C310.57950615 23.6576533 309.29228766 21.82716968 308 20 C307.40316406 20.32871094 306.80632812 20.65742187 306.19140625 20.99609375 C303.73650356 22.34209537 301.27624299 23.67787873 298.81445312 25.01123047 C297.56320154 25.69308851 296.3146523 26.37992101 295.06835938 27.07080078 C272.86828262 39.37736507 252.0015087 44.91661855 226.73583984 46.79101562 C207.39240795 48.26861492 190.94658321 51.80165386 177.0625 66.50390625 C166.97843274 78.70791946 162.92930386 93.32826704 161.07519531 108.74243164 C160.21741268 115.38191909 160.21741268 115.38191909 157 118 C155.0625 118.3984375 155.0625 118.3984375 153 118.375 C151.9790625 118.38660156 151.9790625 118.38660156 150.9375 118.3984375 C148.41294267 117.8792745 147.63316202 116.96839883 146 115 C145.41995971 112.0587856 144.98176451 109.21780386 144.625 106.25 C141.8638993 86.55914018 134.59079649 69.53655251 118.3125 57.1875 C105.56435015 48.87178379 91.36719307 47.59063504 76.61328125 46.65234375 C50.31028511 44.88025237 27.91223911 37.07936437 5.2578125 23.8828125 C2.85959019 22.49678953 0.48167011 21.21891218 -2 20 Z M-37 45 C-41.83145486 50.63004244 -45.98267814 56.77535843 -50 63 C-46.6986643 66.60914892 -42.92268668 69.20031203 -38.84375 71.83984375 C-38.12644714 72.30965668 -37.40914429 72.7794696 -36.67010498 73.26351929 C-35.10734581 74.28625405 -33.54313712 75.30677657 -31.97766113 76.3253479 C-29.44807764 77.97128458 -26.92231116 79.62293593 -24.39746094 81.27612305 C-20.7876282 83.63932759 -17.17647616 86.00049625 -13.56445312 88.36035156 C-5.36157742 93.72249936 2.82337102 99.1118526 11.00628662 104.50439453 C12.84029282 105.71300352 14.67448165 106.92133542 16.5088501 108.12939453 C31.4073017 117.94193964 46.25196532 127.83329729 61.08279419 137.74765015 C71.16785184 144.48644443 81.2747465 151.16687454 91.55371094 157.60766602 C103.74895823 165.29508725 115.68075953 173.39693058 127.66123962 181.41293335 C129.2517597 182.47622172 130.84342368 183.53780122 132.43629456 184.5975647 C135.87914365 186.89123832 139.30358127 189.19903943 142.67089844 191.60253906 C143.72567383 192.3447168 144.78044922 193.08689453 145.8671875 193.8515625 C146.7526123 194.49174316 147.63803711 195.13192383 148.55029297 195.79150391 C150.8852286 197.16214727 150.8852286 197.16214727 153.27758789 197.02905273 C157.43146348 195.45891682 160.98089619 193.10075354 164.69140625 190.68359375 C165.53030899 190.14504257 166.36921173 189.60649139 167.23353577 189.05162048 C175.07327011 184.00027867 182.84058925 178.83951133 190.58392334 173.64196777 C194.78244016 170.82437439 198.98692367 168.01571163 203.19140625 165.20703125 C204.06917725 164.62053802 204.94694824 164.0340448 205.85131836 163.42977905 C215.99592872 156.65776104 226.18521752 149.95376629 236.375 143.25 C250.86718503 133.71455773 265.33591851 124.14609396 279.74755859 114.48925781 C287.46559656 109.32271552 295.23166946 104.23451577 303.02326965 99.17961121 C312.45220168 93.06186877 321.85919153 86.91102349 331.25268555 80.73901367 C333.24203708 79.43313455 335.23263781 78.12915682 337.22436523 76.8269043 C340.14598403 74.91635197 343.06363601 72.99987992 345.98046875 71.08203125 C346.87501266 70.49879593 347.76955658 69.91556061 348.69120789 69.31465149 C349.50749161 68.77616074 350.32377533 68.23766998 351.16479492 67.68286133 C351.88390549 67.21133133 352.60301605 66.73980133 353.34391785 66.25398254 C355.14228158 65.08468899 355.14228158 65.08468899 356 63 C354.23826051 60.36878999 352.46409125 57.74620021 350.6875 55.125 C350.18798828 54.37863281 349.68847656 53.63226563 349.17382812 52.86328125 C348.44389648 51.79013672 348.44389648 51.79013672 347.69921875 50.6953125 C347.25408936 50.03547363 346.80895996 49.37563477 346.3503418 48.69580078 C344.92628424 46.73031475 344.92628424 46.73031475 342 45 C341.13987305 45.57516357 340.27974609 46.15032715 339.39355469 46.74291992 C319.97471522 59.7243554 300.51130618 72.63585928 280.99905396 85.47647095 C268.70188619 93.56980989 256.42743184 101.69536245 244.1875 109.875 C234.7007386 116.21367365 225.19657402 122.52027325 215.62158203 128.7253418 C208.74974973 133.18603675 201.91469792 137.70026877 195.0859375 142.2265625 C192.0839855 144.21394643 189.08186419 146.20107443 186.07974243 148.1882019 C184.08256965 149.51157708 182.08643895 150.83652641 180.09140015 152.16311646 C177.26280904 154.04377645 174.43057598 155.9188377 171.59765625 157.79296875 C170.74952362 158.35903839 169.90139099 158.92510803 169.02755737 159.5083313 C166.70528519 161.04065938 164.36009443 162.52680214 162 164 C161.32105682 164.45492828 160.64211365 164.90985657 159.94259644 165.37857056 C157.14974621 167.06683321 155.14922529 168.10961426 151.84414673 167.79437256 C145.67106101 165.99597752 140.50298009 162.35257558 135.27734375 158.71484375 C134.37359512 158.09912003 133.4698465 157.4833963 132.53871155 156.84901428 C129.6646815 154.88845856 126.80073117 152.91378481 123.9375 150.9375 C120.17897439 148.35859892 116.41644914 145.78559244 112.65234375 143.21484375 C111.73280914 142.58578629 110.81327454 141.95672882 109.86587524 141.30860901 C103.93113073 137.26504036 97.9230137 133.38158758 91.8087616 129.61651611 C84.63419157 125.18851325 77.64372881 120.49181988 70.64404297 115.79394531 C66.39683361 112.94399247 62.14374811 110.10283579 57.890625 107.26171875 C56.55819763 106.371465 56.55819763 106.371465 55.19885254 105.46322632 C44.2498187 98.15431694 33.24845709 90.92495699 22.24972534 83.69116211 C12.00682918 76.9532504 1.77668187 70.19746903 -8.41796875 63.38671875 C-9.33240753 62.77591461 -10.24684631 62.16511047 -11.18899536 61.53579712 C-15.55626459 58.61747139 -19.92116834 55.69567473 -24.28320312 52.76953125 C-25.82810112 51.7356414 -27.37302166 50.70178524 -28.91796875 49.66796875 C-29.98013863 48.95310555 -29.98013863 48.95310555 -31.06376648 48.22380066 C-33.8177867 46.00422428 -33.8177867 46.00422428 -37 45 Z M371.76171875 73.69921875 C370.34922852 74.62408081 370.34922852 74.62408081 368.90820312 75.56762695 C367.84537109 76.26718506 366.78253906 76.96674316 365.6875 77.6875 C364.54240588 78.43918056 363.39722031 79.19072183 362.25195312 79.94213867 C358.92194671 82.12824149 355.59432682 84.31795653 352.26702881 86.50817871 C349.88902271 88.07302875 347.51026356 89.63672877 345.13134766 91.20019531 C323.67570779 105.30256361 302.26858469 119.47425458 280.92352295 133.74343872 C270.74197551 140.54672581 260.53629818 147.28306151 250.16503906 153.79443359 C241.02804962 159.55762945 232.06849574 165.58491102 223.09024048 171.59088135 C210.03393081 180.32450438 196.9349695 188.99112356 183.8125 197.625 C169.25816783 207.20209436 154.72696335 216.81177561 140.25317383 226.51025391 C132.48743935 231.70862844 124.67208463 236.82593874 116.83171082 241.911026 C107.1283458 248.20722045 97.46880524 254.56945016 87.8125 260.9375 C86.86787903 261.56018768 85.92325806 262.18287537 84.95001221 262.82443237 C68.98537177 273.34954362 53.05571903 283.9259785 37.16052246 294.55563354 C33.43867093 297.04323408 29.70887913 299.51837956 25.97265625 301.984375 C25.10334473 302.55921631 24.2340332 303.13405762 23.33837891 303.72631836 C21.79954825 304.74297311 20.25900779 305.75704738 18.71630859 306.76782227 C17.12688725 307.81949806 15.55999583 308.90515061 14 310 C14 310.33 14 310.66 14 311 C20.56041558 311.25646387 27.11951249 311.42985209 33.68383789 311.54931641 C35.90991499 311.59918156 38.13567186 311.66710386 40.3605957 311.75439453 C54.54118006 312.29624648 64.01417347 311.80523528 75.03494263 302.57501221 C78.83873429 299.52623695 82.96494837 296.92992121 87.02734375 294.2421875 C88.81468706 293.03821119 90.60072014 291.83228773 92.38549805 290.62451172 C120.35403714 271.73525501 120.35403714 271.73525501 132.1875 263.875 C142.42876901 257.06946961 152.62267723 250.19473207 162.8125 243.3125 C163.65597992 242.74282501 164.49945984 242.17315002 165.36849976 241.58621216 C169.75580809 238.62289448 174.14283615 235.6591621 178.52978516 232.6953125 C187.85116398 226.39803953 197.17473411 220.10401531 206.5 213.8125 C207.41909149 213.19239044 208.33818298 212.57228088 209.28512573 211.93338013 C220.20068866 204.56990532 231.13021397 197.22926571 242.09643555 189.94140625 C250.86369875 184.10733377 259.58883062 178.21145293 268.3125 172.3125 C269.08522247 171.78999664 269.85794495 171.26749329 270.65408325 170.72915649 C273.87353422 168.55211359 277.09292099 166.37497579 280.3122406 164.19773865 C290.30810757 157.43807346 300.30938407 150.68643217 310.3125 143.9375 C311.22926514 143.31883057 312.14603027 142.70016113 313.09057617 142.06274414 C323.64120903 134.94366876 334.20771159 127.85064002 344.8125 120.8125 C364.29110093 109.83774461 364.29110093 109.83774461 376.375 92.5625 C377.47763106 85.45052967 377.16021014 78.17385397 377 71 C375.05479955 71 373.32246225 72.67493684 371.76171875 73.69921875 Z " fill="#000000" transform="translate(103,97)"/>
</svg>
